<svg xmlns="http://www.w3.org/2000/svg" width="32" height="32" viewBox="0 0 32 32">
    <path fill="#5F6263" fill-rule="evenodd" d="M17.023 14.126v7.957c0 .565-.458 1.023-1.023 1.023-.566 0-1.024-.458-1.024-1.023v-7.957c0-.565.458-1.023 1.024-1.023.565 0 1.023.458 1.023 1.023M16 11.177c-.628 0-1.137-.509-1.137-1.138 0-.628.51-1.137 1.137-1.137s1.136.51 1.136 1.137c0 .63-.509 1.138-1.136 1.138M16 30C8.267 30 2 23.731 2 16 2 8.268 8.267 2 16 2c7.732 0 14 6.268 14 14 0 7.731-6.268 14-14 14m0-1.8c6.727 0 12.2-5.473 12.2-12.2 0-6.728-5.473-12.2-12.2-12.2C9.272 3.8 3.8 9.272 3.8 16c0 6.727 5.472 12.2 12.2 12.2"/>
</svg>
