<svg xmlns="http://www.w3.org/2000/svg" xmlns:xlink="http://www.w3.org/1999/xlink" version="1.1" id="Layer_1" x="0px" y="0px" viewBox="0 0 32 32" style="enable-background:new 0 0 32 32;" xml:space="preserve" class="injected-svg inject-svg" data-variantitemid="{28E5D332-1246-4751-BC4F-93E7E30512D8}" data-variantfieldname="PromoIcon">
<style type="text/css">
	.st0{fill:#5F6263;}
	.st1{fill:none;stroke:#5F6263;stroke-width:1.6;stroke-linecap:round;stroke-linejoin:round;stroke-miterlimit:10;}
	.st2{fill:none;stroke:#5F6263;stroke-width:2;stroke-linecap:round;stroke-linejoin:round;stroke-miterlimit:10;}
	.st3{fill:none;stroke:#000000;stroke-width:1.8;stroke-linecap:round;stroke-linejoin:round;}
	.st4{fill:none;stroke:#000000;stroke-width:2;stroke-linecap:round;stroke-linejoin:round;}
	.st5{fill:none;stroke:#000000;stroke-width:1.9714;stroke-linecap:round;stroke-linejoin:round;}
	.st6{clip-path:url(#SVGID_2_);enable-background:new    ;}
	.st7{clip-path:url(#SVGID_4_);}
	.st8{clip-path:url(#SVGID_6_);}
	.st9{clip-path:url(#SVGID_8_);fill:#333333;}
	.st10{clip-path:url(#SVGID_10_);}
	.st11{clip-path:url(#SVGID_13_);}
	.st12{clip-path:url(#SVGID_14_);}
	.st13{clip-path:url(#SVGID_19_);}
	.st14{clip-path:url(#SVGID_20_);}
	.st15{clip-path:url(#SVGID_21_);}
	.st16{clip-path:url(#SVGID_22_);}
	.st17{clip-path:url(#SVGID_26_);}
	.st18{clip-path:url(#SVGID_27_);}
	.st19{clip-path:url(#SVGID_28_);}
	.st20{clip-path:url(#SVGID_30_);}
</style>
<path d="M26.7,32c-0.1,0-0.2,0-0.3,0c-4.6-0.5-9-2.1-12.8-4.6c-3.6-2.3-6.6-5.3-8.9-8.9C2.1,14.7,0.5,10.2,0,5.6  c-0.2-2.1,1.4-4,3.5-4.2c0.1,0,0.2,0,0.3,0h4.3c1.9,0,3.6,1.4,3.8,3.3c0.2,1.3,0.5,2.6,1,3.8c0.5,1.4,0.2,3-0.9,4.1l-1.3,1.3  c1.8,2.9,4.3,5.4,7.2,7.2l1.3-1.3c1.1-1.1,2.7-1.4,4.1-0.9c1.2,0.5,2.5,0.8,3.8,1c1.9,0.3,3.4,2,3.3,3.9v4.3c0,1-0.4,2-1.1,2.7  C28.7,31.6,27.7,32,26.7,32C26.7,32,26.7,32,26.7,32z M8.2,3.4C8.2,3.4,8.2,3.4,8.2,3.4l-4.3,0c-0.1,0-0.1,0-0.2,0  c-1,0.1-1.8,1-1.7,2c0.5,4.2,1.9,8.4,4.3,12c2.1,3.3,5,6.2,8.3,8.3c3.6,2.3,7.7,3.8,12,4.3c0,0,0.1,0,0.2,0c0.5,0,1-0.2,1.3-0.6  c0.4-0.4,0.5-0.8,0.5-1.3v-4.3c0,0,0,0,0,0c0-1-0.7-1.8-1.6-1.9c-1.4-0.2-2.9-0.5-4.2-1.1c-0.7-0.3-1.5-0.1-2,0.4l-1.8,1.8  c-0.3,0.3-0.8,0.4-1.2,0.2c-3.7-2.1-6.9-5.2-9-9c-0.2-0.4-0.2-0.9,0.2-1.2l1.8-1.8c0.5-0.5,0.7-1.3,0.4-2c-0.5-1.4-0.9-2.8-1.1-4.3  C9.9,4.1,9.1,3.4,8.2,3.4z M25.3,13.4c-0.5,0-0.9-0.3-1-0.8c-0.5-2.5-2.4-4.4-4.9-4.9c-0.5-0.1-0.9-0.6-0.8-1.2  c0.1-0.5,0.6-0.9,1.2-0.8c3.3,0.6,5.8,3.2,6.5,6.5c0.1,0.5-0.2,1.1-0.8,1.2C25.4,13.4,25.3,13.4,25.3,13.4z M31,13.4  c-0.5,0-0.9-0.4-1-0.9c-0.6-5.6-5-9.9-10.5-10.5c-0.5-0.1-0.9-0.5-0.9-1.1c0.1-0.5,0.6-0.9,1.1-0.9C26.2,0.7,31.2,5.8,32,12.3  c0.1,0.5-0.3,1-0.9,1.1C31.1,13.4,31,13.4,31,13.4z" fill="#5F6263"></path>
</svg>