<svg xmlns="http://www.w3.org/2000/svg" xmlns:xlink="http://www.w3.org/1999/xlink" width="121" height="25" viewBox="0 0 121 25">
    <defs>
        <path id="a" d="M0 0h121.008v23.598H0z"/>
    </defs>
    <g fill="none" fill-rule="evenodd" opacity=".5" transform="translate(0 .47)">
        <mask id="b" fill="#fff">
            <use xlink:href="#a"/>
        </mask>
        <path fill="#333" d="M66.459 2.307C66.5 3.62 65.456 4.7 64.132 4.72A2.347 2.347 0 0 1 61.7 2.413 2.358 2.358 0 0 1 64.026 0h.063c1.281-.02 2.348.974 2.391 2.244-.021.042-.021.042-.021.063zm-4.44 20.932h4.12V6.879h-4.12v16.36zM83.704 9.143c1.195 1.397 1.707 3.111 1.707 5.757v8.338h-4.14v-8.677c0-1.566-.32-2.54-1.067-3.301-.64-.635-1.601-.995-2.69-.995a5.616 5.616 0 0 0-4.289 2.138l-.043.042v10.751h-4.119V6.836h3.949v1.567l.341-.276c1.302-1.079 2.945-1.65 4.653-1.65 2.198.042 4.29.994 5.698 2.666zm37.305 14.095h-4.865l-4.098-5.82-4.098 5.82h-4.866l6.339-8.761-5.55-7.62h4.696l3.458 4.932 3.457-4.931h4.695l-5.549 7.619 6.381 8.761zM57.666 9.143c1.13 1.376 1.664 3.09 1.664 5.397v8.677h-4.119v-8.846c0-1.418-.256-2.307-.896-3.005-.747-.805-1.366-1.101-2.283-1.101-2.263 0-3.458 1.735-3.842 2.307l-.043.063v.085c.086.614.128 1.228.128 1.841v8.677h-4.097v-8.846c0-1.418-.256-2.307-.897-3.005-.747-.805-1.366-1.1-2.283-1.1-1.985 0-3.031 1.333-3.671 2.116l-.043.063-.021.106V23.26h-4.119V6.9h3.948v1.608l.341-.296c1.324-1.164 2.476-1.65 4.013-1.65 2.027 0 3.67.804 5.122 2.56l.15.17.17-.17c1.707-1.778 3.372-2.56 5.442-2.56 2.113-.043 3.927.846 5.336 2.581zm33.976 3.725c.235-1.714 1.963-3.11 3.842-3.11a3.602 3.602 0 0 1 3.564 3.131l.021.233H91.62l.022-.254zm4.567 7.492c-2.561 0-4.524-1.714-4.78-4.17l-.022-.232h11.781c.043-.36.085-.72.064-1.08 0-4.698-3.415-8.38-7.79-8.38-4.567 0-8.024 3.682-8.024 8.55 0 5.016 3.564 8.508 8.664 8.508 2.583 0 5.122-1.058 6.66-2.794l-2.306-2.286c-.576.614-2.091 1.884-4.247 1.884zm-91.898-.867h10.287v3.745H0V0h4.29l.021 19.493zM26.4 18.329l-.043.063c-.96 1.164-2.262 1.799-3.65 1.799-1.43 0-2.475-.847-2.475-2.01 0-1.757 1.985-2.392 3.692-2.392a4.82 4.82 0 0 1 2.37.55l.106.064v1.926zm-3.244-11.81c-2.604 0-4.887.847-6.125 1.608l1.302 3.09c1.152-.656 2.902-1.29 4.396-1.29 2.326 0 3.67 1.163 3.67 3.174v.339l-.298-.149a7.874 7.874 0 0 0-3.265-.698c-4.418 0-6.744 2.815-6.744 5.609 0 3.026 2.582 5.396 5.89 5.396 2.134 0 3.714-.995 4.205-1.608l.362-.466v1.736h3.949v-9.143c0-2.646-.577-3.894-1.494-5.037-1.302-1.651-3.394-2.561-5.848-2.561zm94.78-6.201c1.109-.021 2.027.868 2.027 1.968a1.982 1.982 0 0 1-1.985 2.01c-1.11.022-2.028-.867-2.028-1.967v-.022c0-1.1.875-1.99 1.985-1.99zm0 4.296c1.28 0 2.325-1.037 2.325-2.307S119.216 0 117.935 0c-1.28 0-2.326 1.038-2.326 2.307 0 1.27 1.046 2.307 2.326 2.307zm-.662-3.301h.725c.171 0 .662 0 .662.423 0 .487-.534.487-.726.487h-.661v-.91zm0 1.227h.661c.598 0 .683.212.683.635.021.339.021.402.086.487h.34c-.063-.106-.063-.17-.084-.614-.022-.339-.086-.55-.449-.656v-.021a.617.617 0 0 0 .491-.635c0-.72-.768-.72-.939-.72h-1.11v2.625h.342l-.021-1.1z" mask="url(#b)"/>
    </g>
</svg>
