<svg xmlns="http://www.w3.org/2000/svg" width="250" height="68" viewBox="0 0 250 68">
    <path fill="#333" fill-rule="evenodd" d="M133.394 6.363c0 2.613-2.099 4.659-4.78 4.659-2.68 0-4.78-2.046-4.78-4.659s2.1-4.659 4.78-4.659c2.681 0 4.78 2.046 4.78 4.66zm-8.917 42.368h8.274v-33.14h-8.274v33.14zm43.533-28.525c2.387 2.833 3.406 6.314 3.406 11.64v16.885h-8.274V31.146c0-3.165-.645-5.16-2.152-6.669-1.298-1.298-3.219-2.012-5.408-2.012-3.747 0-7.085 2.267-8.602 4.374l-.078.11V48.73h-8.275v-33.14h7.924v3.189l.677-.549c2.734-2.217 5.875-3.34 9.335-3.34 4.461 0 8.633 1.937 11.447 5.315zm74.87 28.525h-9.758l-8.202-11.8-8.202 11.8h-9.759l12.73-17.727-11.119-15.412h9.408l6.942 9.978 6.941-9.978h9.407l-11.116 15.412 12.728 17.727zm-127.128-28.53c2.278 2.792 3.34 6.27 3.34 10.945V48.73h-8.276V30.796c0-2.888-.516-4.653-1.785-6.089-1.487-1.637-2.73-2.242-4.593-2.242-4.537 0-6.923 3.512-7.707 4.665l-.087.13.019.155c.134 1.075.277 2.337.277 3.73v17.586h-8.275V30.796c0-2.888-.517-4.652-1.784-6.089-1.488-1.637-2.73-2.242-4.594-2.242-3.998 0-6.098 2.685-7.354 4.29l-.09.113-.054.214v21.649h-8.276v-33.14h7.924v3.247l.693-.62c2.642-2.363 4.979-3.328 8.068-3.328 4.087 0 7.35 1.645 10.264 5.173l.299.362.323-.34c3.417-3.592 6.784-5.195 10.915-5.195 4.272 0 7.89 1.787 10.753 5.311zm68.187 7.526c.474-3.48 3.926-6.313 7.696-6.313 4.046 0 6.855 3.286 7.139 6.331l.042.454h-14.942l.065-.472zm9.166 15.18c-5.135 0-9.078-3.464-9.589-8.427l-.046-.457h23.642c.096-.658.148-1.403.148-2.177 0-9.507-6.864-16.956-15.625-16.956-9.187 0-16.115 7.441-16.115 17.307 0 10.147 7.146 17.235 17.377 17.235 5.181 0 10.264-2.16 13.37-5.658l-4.61-4.61c-1.182 1.182-4.237 3.744-8.552 3.744zm-184.48-1.75h20.663v7.574H0V1.706h8.625v39.45zm44.341-2.368l-.095.115c-1.939 2.356-4.541 3.654-7.324 3.654-2.88 0-4.968-1.706-4.968-4.057 0-3.565 3.995-4.828 7.419-4.828 1.9 0 3.457.36 4.758 1.104l.21.12v3.892zm-6.51-23.899c-5.218 0-9.805 1.71-12.297 3.25l2.62 6.24c2.317-1.34 5.821-2.616 8.837-2.616 4.672 0 7.35 2.347 7.35 6.44v.662l-.596-.289c-1.881-.907-4.266-1.428-6.544-1.428-8.877 0-13.522 5.71-13.522 11.352 0 6.13 5.201 10.93 11.841 10.93 4.297 0 7.45-2.006 8.426-3.27l.745-.965v3.535h7.924V30.235c0-5.362-1.144-7.87-2.99-10.176-2.68-3.332-6.867-5.169-11.794-5.169zM245.22 17.93c2.257 0 3.99 1.853 3.99 4.036 0 2.246-1.796 4.04-3.99 4.04-2.233 0-3.987-1.831-3.987-4.04 0-2.183 1.718-4.036 3.987-4.036zm.01 8.696a4.665 4.665 0 0 0 4.648-4.66c0-2.548-2.061-4.657-4.648-4.657a4.662 4.662 0 0 0-4.67 4.657c0 2.55 2.06 4.66 4.67 4.66zm-1.327-6.658h1.461c.356 0 1.32 0 1.32.865 0 .976-1.086.976-1.441.976h-1.34v-1.841zm0 2.452v2.255h-.672v-5.33h2.244c.33 0 1.88 0 1.88 1.452 0 .586-.269 1.122-.99 1.292v.024c.732.207.866.647.89 1.331.051.902.051 1.01.173 1.23h-.674c-.094-.158-.131-.315-.155-.987 0-.842-.148-1.267-1.37-1.267h-1.326zM97.413 54.025h2.922v13.344h-2.069l-6.878-8.042v8.042h-2.92V54.025h2.067l6.878 8.04v-8.04zm7.645 0h8.18v2.647h-5.258v2.241h3.966v2.645h-3.966v3.165h5.441v2.646h-8.363V54.025zm26.962 0h2.964l-4.422 13.344H128.5l-2.724-7.734-2.704 7.734h-2.062l-.049-.149-4.373-13.195h2.962l2.526 7.608 2.681-7.608h2.058l2.682 7.608 2.524-7.608zm13.684 0h9.47v1.758l-6.096 8.94h6.465v2.646H145.15v-1.758l.038-.055 6.041-8.884h-5.524v-2.647zm13.734 0h8.18v2.647h-5.259v2.241h3.966v2.645h-3.966v3.165h5.441v2.646h-8.362V54.025zm17.401 0l-5.717 13.344h3.071l1.218-2.86h4.897l1.217 2.86h3.071l-5.717-13.344h-2.04zm1.011 4.786l1.313 3.053h-2.626l1.313-3.053zm10.25-4.786h2.924v10.698h5.44v2.646h-8.363V54.025zm17.405 0l-5.718 13.344h3.071l1.217-2.86h4.897l1.218 2.86h3.071l-5.718-13.344h-2.038zm1.01 4.786l1.312 3.053h-2.625l1.313-3.053zm19.196-4.786h2.923v13.344h-2.07l-.064-.076-6.814-7.966v8.042h-2.92V54.025h2.068l.065.074 6.812 7.967v-8.041zm12.196 10.698h-1.629v-8.051h1.629c1.382 0 2.406.444 3.133 1.356.576.721.893 1.669.893 2.669 0 1.002-.317 1.948-.893 2.668-.728.914-1.752 1.358-3.133 1.358m4.296-9.438c-1.167-.86-2.619-1.26-4.574-1.26h-4.273V67.37h4.273c1.956 0 3.408-.4 4.575-1.26 1.66-1.235 2.65-3.258 2.65-5.412 0-2.153-.99-4.177-2.65-5.412"/>
</svg>
