<svg xmlns="http://www.w3.org/2000/svg" xmlns:xlink="http://www.w3.org/1999/xlink" version="1.1" id="Layer_1" x="0px" y="0px" viewBox="0 0 32 32" style="enable-background:new 0 0 32 32;" xml:space="preserve" class="injected-svg inject-svg" data-variantitemid="{690C4F14-45F6-4DFE-BEEE-F6AD6A329090}" data-variantfieldname="PromoIcon">
<style type="text/css">
	.st0{fill:#5F6263;}
	.st1{fill:none;stroke:#5F6263;stroke-width:1.6;stroke-linecap:round;stroke-linejoin:round;stroke-miterlimit:10;}
	.st2{fill:none;stroke:#5F6263;stroke-width:2;stroke-linecap:round;stroke-linejoin:round;stroke-miterlimit:10;}
	.st3{fill:none;stroke:#000000;stroke-width:1.8;stroke-linecap:round;stroke-linejoin:round;}
	.st4{fill:none;stroke:#000000;stroke-width:2;stroke-linecap:round;stroke-linejoin:round;}
	.st5{fill:none;stroke:#000000;stroke-width:1.9714;stroke-linecap:round;stroke-linejoin:round;}
	.st6{clip-path:url(#SVGID_2_);enable-background:new    ;}
	.st7{clip-path:url(#SVGID_4_);}
	.st8{clip-path:url(#SVGID_6_);}
	.st9{clip-path:url(#SVGID_8_);fill:#333333;}
	.st10{clip-path:url(#SVGID_10_);}
	.st11{clip-path:url(#SVGID_13_);}
	.st12{clip-path:url(#SVGID_14_);}
	.st13{clip-path:url(#SVGID_19_);}
	.st14{clip-path:url(#SVGID_20_);}
	.st15{clip-path:url(#SVGID_21_);}
	.st16{clip-path:url(#SVGID_22_);}
	.st17{clip-path:url(#SVGID_26_);}
	.st18{clip-path:url(#SVGID_27_);}
	.st19{clip-path:url(#SVGID_28_);}
	.st20{clip-path:url(#SVGID_30_);}
</style>
<g>
	<path d="M15.9,20.8c-0.6,0-1-0.4-1-1v-2.3c0-0.4,0.3-0.8,0.7-0.9c0,0,4-1.5,4-3.9c0-1.6-1-3.1-2.5-3.6c-0.9-0.3-1.9-0.3-2.8,0.1   c-0.9,0.4-1.6,1.2-1.9,2.2c-0.2,0.5-0.7,0.8-1.3,0.6c-0.5-0.2-0.8-0.7-0.6-1.3c0.5-1.5,1.6-2.7,3-3.4c1.4-0.7,2.9-0.7,4.3-0.2   c2.3,0.8,3.8,3,3.8,5.5c0,3.1-3.2,4.9-4.7,5.5v1.6C16.9,20.3,16.4,20.8,15.9,20.8z" fill="#5F6263"></path>
	<path d="M16,1.7c7.5,0,13.7,6.4,13.7,14.2S23.5,30,16,30S2.3,23.6,2.3,15.8S8.5,1.7,16,1.7 M16-0.3C7.4-0.3,0.3,6.9,0.3,15.8   S7.4,32,16,32s15.7-7.2,15.7-16.2S24.6-0.3,16-0.3L16-0.3z" fill="#5F6263"></path>
	<path d="M16,24.9c-0.1,0-0.1,0-0.2,0c-0.1,0-0.1,0-0.2-0.1c-0.1,0-0.1-0.1-0.2-0.1c0,0-0.1-0.1-0.1-0.1c-0.2-0.2-0.3-0.4-0.3-0.7   c0-0.3,0.1-0.5,0.3-0.7c0-0.1,0.1-0.1,0.1-0.1c0.1,0,0.1-0.1,0.2-0.1c0.1,0,0.1,0,0.2-0.1c0.1,0,0.3,0,0.4,0c0.1,0,0.1,0,0.2,0.1   c0.1,0,0.1,0.1,0.2,0.1c0.1,0,0.1,0.1,0.2,0.1c0.2,0.2,0.3,0.4,0.3,0.7c0,0.1,0,0.1,0,0.2c0,0.1,0,0.1-0.1,0.2c0,0.1,0,0.1-0.1,0.2   c0,0.1-0.1,0.1-0.1,0.1c0,0.1-0.1,0.1-0.2,0.1c0,0-0.1,0.1-0.2,0.1c-0.1,0-0.1,0-0.2,0.1C16.1,24.9,16.1,24.9,16,24.9z" fill="#5F6263"></path>
</g>
</svg>