<svg xmlns="http://www.w3.org/2000/svg" width="25" height="29" viewBox="0 0 25 29">
    <g fill="none" fill-rule="evenodd">
        <path fill="#FFF" stroke="#787B7C" d="M21.057.403H4.254A3.06 3.06 0 0 0 1.2 3.467v22.066a3.06 3.06 0 0 0 3.053 3.064h16.803a3.058 3.058 0 0 0 3.052-3.064V3.467A3.058 3.058 0 0 0 21.057.403"/>
        <path fill="#5F6263" d="M10.558 19.255H7.794a.794.794 0 0 1 0-1.586h2.764a.793.793 0 0 1 0 1.586M14.82 23.2H7.793a.794.794 0 0 1 0-1.586h7.027a.792.792 0 1 1 0 1.586M14.511 6.41c-.62 0-1.127.508-1.127 1.134 0 .625.507 1.133 1.127 1.133.621 0 1.127-.508 1.127-1.133 0-.626-.506-1.134-1.127-1.134m0 3.677a2.543 2.543 0 0 1-2.536-2.543A2.543 2.543 0 0 1 14.51 5a2.543 2.543 0 0 1 2.537 2.544 2.543 2.543 0 0 1-2.537 2.543"/>
    </g>
</svg>
