<svg xmlns="http://www.w3.org/2000/svg" width="30" height="30" viewBox="0 0 30 30">
    <g fill="#3B3C40" fill-rule="evenodd">
        <g>
            <path d="M1.313 20.191H12.75V5.121H1.313v15.07zM.656 3.75c-.362 0-.656.307-.656.685v16.441c0 .38.294.686.656.686h12.75c.363 0 .656-.306.656-.684V4.436c0-.38-.293-.686-.656-.686H.656z" transform="translate(6.563 3.75)"/>
            <path d="M5.344 0c-.363 0-.657.307-.657.685v1.371H6V1.37h10.5v15.073h-.654v1.37h1.31a.671.671 0 00.657-.685V.685A.671.671 0 0017.154 0H5.344z" transform="translate(6.563 3.75)"/>
        </g>
        <path d="M16.23 17.05h-1.992v1.993a.644.644 0 11-1.289 0v-1.992h-1.992a.644.644 0 01-.645-.645c0-.356.28-.635.635-.635l2.003-.01V13.77a.644.644 0 111.288 0v1.992h1.992a.644.644 0 110 1.289z"/>
    </g>
</svg>
