<?xml version="1.0" standalone="no"?>
<!DOCTYPE svg PUBLIC "-//W3C//DTD SVG 1.1//EN" "http://www.w3.org/Graphics/SVG/1.1/DTD/svg11.dtd" >
<svg xmlns="http://www.w3.org/2000/svg">
<metadata>
<json>
<![CDATA[
{
	"fontFamily": "font-icons-new",
	"majorVersion": 1,
	"minorVersion": 2,
	"version": "Version 1.2",
	"fontId": "font-icons-new",
	"psName": "font-icons-new",
	"subFamily": "Regular",
	"fullName": "font-icons-new",
	"description": "Font generated by IcoMoon."
}
]]>
</json>
</metadata>
<defs>
<font id="font-icons-new" horiz-adv-x="1024">
<font-face units-per-em="1024" ascent="1024" descent="0" />
<missing-glyph horiz-adv-x="1024" />
<glyph unicode="&#x20;" horiz-adv-x="0" d="" />
<glyph unicode="&#xe001;" glyph-name="alert" data-tags="alert" d="M948.48 256l-363.2 600.96c-15.333 24.754-42.345 40.996-73.15 40.996-16.495 0-31.903-4.657-44.979-12.728l0.369 0.212c-11.911-7.062-21.618-16.667-28.595-28.118l-0.205-0.362-363.2-600.96c-7.082-12.122-11.263-26.687-11.263-42.23 0-31.572 17.253-59.114 42.846-73.711l0.417-0.219c12.067-6.905 26.493-11.039 41.873-11.2h726.447c46.571 0.346 84.19 38.179 84.19 84.798 0 0.788-0.011 1.574-0.032 2.358l0.002-0.115c-0.552 14.913-4.759 28.733-11.744 40.737l0.224-0.417zM895.36 192c-5.132-5.303-12.226-8.681-20.109-8.959l-0.051-0.001h-725.76c-5.33 0.246-10.258 1.759-14.554 4.242l0.154-0.082c-9.014 4.985-15.016 14.435-15.016 25.287 0 5.041 1.295 9.78 3.571 13.901l-0.075-0.148 363.2 601.92c5.339 8.494 14.66 14.057 25.28 14.057s19.941-5.563 25.208-13.934l0.072-0.123 362.56-598.72c2.401-4.142 3.914-9.070 4.157-14.329l0.003-0.071c0.014-0.333 0.022-0.724 0.022-1.116 0-7.663-3.061-14.612-8.027-19.689l0.005 0.005zM476.8 441.6v206.4c0 19.44 15.76 35.2 35.2 35.2s35.2-15.76 35.2-35.2v0-206.4c0-19.44-15.76-35.2-35.2-35.2s-35.2 15.76-35.2 35.2v0zM538.88 327.36c6.907-7.257 11.244-17.017 11.519-27.786l0.001-0.054c-0.016-5.447-1.192-10.615-3.295-15.276l0.095 0.236c-2.042-4.852-4.852-8.995-8.322-12.482l0.002 0.002c-3.505-3.237-7.508-6.013-11.863-8.186l-0.297-0.134c-4.479-1.605-9.647-2.541-15.031-2.56h-0.009c-5.181 0.076-10.121 1.008-14.717 2.659l0.317-0.099c-4.709 2.128-8.735 4.924-12.163 8.323l0.003-0.003c-3.468 3.485-6.278 7.628-8.225 12.226l-0.095 0.254c-2.008 4.425-3.184 9.593-3.2 15.034v0.006c0.106 10.852 4.482 20.662 11.526 27.847l-0.006-0.007c7.016 6.572 16.477 10.608 26.88 10.608s19.864-4.036 26.902-10.628l-0.022 0.020z" />
<glyph unicode="&#xe002;" glyph-name="arrow-small-left" data-tags="arrow-small-left" d="M738.24 455.040h-674.24v116.16h672l-187.84 186.88 81.6 82.56 330.24-328.64-330.24-328.64-81.6 82.56z" />
<glyph unicode="&#xe003;" glyph-name="arrow-small-right" data-tags="arrow-small-right" d="M475.84 265.92l-81.6-82.56-330.24 328.64 330.24 328.64 81.6-82.56-187.84-186.88h672v-116.16h-674.24z" />
<glyph unicode="&#xe004;" glyph-name="bin" data-tags="bin" d="M896 800h-185.6v46.080c0 62.916-51.004 113.92-113.92 113.92v0h-167.040c-60.515-0.137-109.519-49.226-109.519-109.76 0-1.463 0.029-2.919 0.085-4.369l-0.006 0.208v-46.080h-192c-17.673 0-32-14.327-32-32v0c0-17.673 14.327-32 32-32v0h64v-558.080c0-0.097 0-0.212 0-0.327 0-62.29 50.134-112.87 112.252-113.592l0.068-0.001h417.6c62.74 0 113.6 50.86 113.6 113.6v0 558.4h60.48c17.264 0.982 31.018 14.736 31.996 31.91l0.004 0.090c-0.982 17.264-14.736 31.018-31.91 31.996l-0.090 0.004zM380.8 846.080c-0.045 0.771-0.070 1.672-0.070 2.579 0 26.156 21.204 47.36 47.36 47.36 0.475 0 0.948-0.007 1.419-0.021l-0.069 0.002h167.040c0.67 0.031 1.454 0.049 2.243 0.049 28.069 0 50.863-22.587 51.196-50.578v-45.472h-269.12zM775.36 177.92c0-29.514-23.926-53.44-53.44-53.44h-416c-29.514 0-53.44 23.926-53.44 53.44v558.080h522.88zM384 315.52v233.28c0 17.673 14.327 32 32 32s32-14.327 32-32v0-233.28c0-17.673-14.327-32-32-32s-32 14.327-32 32v0zM576 315.52v233.28c0 17.673 14.327 32 32 32s32-14.327 32-32v0-233.28c0-17.673-14.327-32-32-32s-32 14.327-32 32v0z" />
<glyph unicode="&#xe005;" glyph-name="bulb" data-tags="bulb" d="M550.4 64h-76.48c-1.169-0.046-2.541-0.072-3.919-0.072-57.237 0-103.903 45.263-106.155 101.948l-0.006 0.204v162.88c-104.005 51.020-174.58 155.699-175.679 276.973l-0.001 0.147c4.806 172.985 146.182 311.384 319.884 311.384 1.391 0 2.78-0.009 4.166-0.027l-0.21 0.002c1.176 0.016 2.565 0.024 3.956 0.024 173.702 0 315.078-138.399 319.874-310.941l0.010-0.443c-1.165-121.232-71.578-225.744-173.538-275.988l-1.822-0.812v-163.2c-2.259-56.889-48.924-102.152-106.161-102.152-1.378 0-2.75 0.026-4.116 0.078l0.197-0.006zM420.16 150.72c8.579-20.827 28.718-35.221 52.219-35.221 0.542 0 1.082 0.008 1.621 0.023l-0.079-0.002h76.48c0.523-0.018 1.138-0.028 1.755-0.028 23.446 0 43.526 14.408 51.87 34.853l0.135 0.374zM417.6 201.92h190.4v106.24c-28.332-8.379-60.883-13.201-94.56-13.201s-66.228 4.821-97 13.812l2.44-0.611zM481.6 347.84c9.166-0.994 19.797-1.561 30.56-1.561s21.394 0.567 31.865 1.673l-1.305-0.112c-4.173 17.828-6.565 38.299-6.565 59.328 0 40.296 8.783 78.541 24.54 112.924l-0.695-1.692h-96c14.561-32.144 23.046-69.698 23.046-109.234 0-21.751-2.568-42.902-7.418-63.167l0.372 1.841zM419.52 569.28h185.28c0.079 0.001 0.172 0.001 0.266 0.001 9.844 0 18.438-5.356 23.026-13.313l0.068-0.129c2.41-3.71 3.843-8.248 3.843-13.12s-1.433-9.41-3.9-13.215l0.058 0.095c-23.469-34.444-37.474-76.971-37.474-122.769 0-17.284 1.995-34.103 5.766-50.238l-0.293 1.487c108.561 32.645 186.573 131.002 188.158 247.817l0.002 0.183c-2.998 144.193-120.595 259.935-265.226 259.935-2.494 0-4.981-0.034-7.459-0.103l0.365 0.008c-1.446 0.028-3.152 0.044-4.862 0.044-144.677 0-262.336-115.677-265.533-259.587l-0.005-0.298c1.654-116.347 78.871-214.222 184.703-246.867l1.857-0.493c3.439 14.543 5.41 31.242 5.41 48.401 0 45.693-13.981 88.121-37.899 123.239l0.489-0.76c-2.273 3.748-3.618 8.277-3.618 13.12s1.345 9.372 3.682 13.234l-0.064-0.114c4.572 7.722 12.666 12.939 22.012 13.437l0.068 0.003zM933.12 256c-0.020 0-0.044 0-0.068 0-7.326 0-13.968 2.931-18.817 7.684l0.004-0.004-82.24 78.4c-4.698 4.594-7.611 10.997-7.611 18.080s2.913 13.486 7.606 18.075l0.005 0.005c4.935 4.734 11.647 7.65 19.040 7.65s14.105-2.915 19.050-7.659l-0.010 0.009 81.28-77.76c4.796-4.608 7.776-11.076 7.776-18.24s-2.98-13.632-7.768-18.232l-0.008-0.008c-4.703-4.687-11.094-7.683-18.181-7.998l-0.059-0.002zM90.88 262.4c-7.392 0.008-14.131 2.8-19.226 7.383l0.026-0.023c-4.716 4.646-7.637 11.102-7.637 18.24s2.922 13.594 7.634 18.237l0.003 0.003 81.28 77.76c4.986 5.016 11.89 8.121 19.52 8.121s14.534-3.105 19.519-8.12l0.001-0.001c4.698-4.594 7.611-10.997 7.611-18.080s-2.913-13.486-7.606-18.075l-0.005-0.005-82.24-77.44c-4.963-4.541-11.593-7.333-18.874-7.36h-0.006zM171.84 832c-7.339 0.053-13.987 2.97-18.889 7.688l0.009-0.008-81.28 76.48c-4.78 4.556-7.752 10.971-7.752 18.080s2.972 13.524 7.742 18.071l0.010 0.009c4.885 4.715 11.543 7.62 18.88 7.62s13.995-2.905 18.888-7.627l-0.008 0.008 82.56-77.76c4.716-4.646 7.637-11.102 7.637-18.24s-2.922-13.594-7.634-18.237l-0.003-0.003c-4.852-3.849-11.065-6.175-17.82-6.175-0.824 0-1.639 0.035-2.445 0.102l0.105-0.007zM848.32 832c-0.044 0-0.095 0-0.147 0-7.245 0-13.836 2.799-18.75 7.376l0.017-0.015c-4.88 4.568-7.922 11.049-7.922 18.24s3.041 13.672 7.908 18.227l0.014 0.013 80.96 77.76c4.935 4.734 11.647 7.65 19.040 7.65s14.105-2.915 19.050-7.659l-0.010 0.009c4.698-4.594 7.611-10.997 7.611-18.080s-2.913-13.486-7.606-18.075l-0.005-0.005-81.28-79.36c-4.761-3.809-10.871-6.113-17.519-6.113-0.479 0-0.955 0.012-1.428 0.036l0.066-0.003z" />
<glyph unicode="&#xe006;" glyph-name="cart" data-tags="cart" d="M421.44 265.92c-0.095 0-0.207 0.001-0.32 0.001-55.494 0-100.48-44.986-100.48-100.48s44.986-100.48 100.48-100.48c55.493 0 100.48 44.986 100.48 100.479v0c-0.18 55.309-44.877 100.118-100.125 100.48h-0.035zM421.44 129.28c-0.095-0.001-0.207-0.001-0.319-0.001-20.147 0-36.48 16.333-36.48 36.48s16.333 36.48 36.48 36.48c20.147 0 36.48-16.333 36.48-36.48 0-0.112-0.001-0.224-0.002-0.336v0.017c0.008-0.286 0.013-0.623 0.013-0.961 0-20.039-16.158-36.305-36.156-36.479h-0.017zM820.16 265.92c-0.095 0-0.207 0.001-0.32 0.001-55.494 0-100.48-44.986-100.48-100.48s44.986-100.48 100.48-100.48c55.493 0 100.48 44.986 100.48 100.479v0c0 0 0 0 0 0.001 0 55.381-44.804 100.298-100.143 100.479h-0.017zM820.16 129.28c-0.095-0.001-0.207-0.001-0.319-0.001-20.147 0-36.48 16.333-36.48 36.48s16.333 36.48 36.48 36.48c20.147 0 36.48-16.333 36.48-36.48 0-0.112-0.001-0.224-0.002-0.336v0.017c0.014-0.382 0.023-0.83 0.023-1.28 0-19.971-16.189-36.16-36.16-36.16-0.008 0-0.016 0-0.024 0h0.001zM443.84 314.56h356.16c50.543 0.139 92.648 36.091 102.287 83.809l0.113 0.671 57.6 304.96c0.371 1.83 0.584 3.933 0.584 6.085 0 17.673-14.327 32-32 32-0.205 0-0.41-0.002-0.615-0.006h-589.089l-31.36 153.92c-2.952 14.871-15.894 25.925-31.418 25.925-0.205 0-0.409-0.002-0.612-0.006h-179.489c-17.673 0-32-14.327-32-32s14.327-32 32-32v0h153.92l32-153.92c-0.071-0.481-0.112-1.036-0.112-1.6s0.041-1.119 0.119-1.662l-0.007 0.062 60.48-302.080c9.588-48.067 51.29-83.836 101.405-84.16h0.035zM891.84 676.8l-50.56-265.6c-3.967-18.43-20.124-32.041-39.461-32.041-0.64 0-1.276 0.015-1.909 0.044l0.090-0.003h-352c-0.276-0.007-0.601-0.011-0.927-0.011-19.388 0-35.604 13.576-39.662 31.74l-0.051 0.271-55.36 265.6z" />
<glyph unicode="&#xe007;" glyph-name="chat" data-tags="chat" d="M849.6 928h-470.72c-1.693 0.097-3.673 0.153-5.666 0.153-55.545 0-101.012-43.146-104.716-97.751l-0.018-0.322v-32h-88.64c-1.693 0.097-3.673 0.153-5.666 0.153-55.545 0-101.012-43.146-104.716-97.751l-0.018-0.322v-303.68c3.722-54.928 49.189-98.073 104.734-98.073 1.993 0 3.973 0.056 5.939 0.165l-0.273-0.012h12.16v-145.28c-0.001-0.071-0.001-0.155-0.001-0.24 0-10.084 6.138-18.735 14.881-22.421l0.16-0.060c2.837-1.198 6.134-1.902 9.593-1.92h0.007c0.128-0.002 0.279-0.004 0.43-0.004 6.433 0 12.267 2.565 16.535 6.729l-0.005-0.005 170.88 163.2h248c0.248-0.002 0.542-0.003 0.836-0.003 28.213 0 54.083 10.030 74.238 26.719l-0.194-0.156 70.080-69.12c4.402-4.162 10.358-6.72 16.912-6.72 0.017 0 0.034 0 0.051 0h-0.003c0.038 0 0.084 0 0.129 0 3.53 0 6.895 0.706 9.962 1.984l-0.171-0.063c8.741 3.914 14.721 12.536 14.721 22.555 0 0.058 0 0.116-0.001 0.174v-0.009 145.28h10.56c1.783-0.108 3.867-0.17 5.965-0.17 55.487 0 100.886 43.187 104.419 97.781l0.016 0.309v312.96c-3.548 54.903-48.948 98.090-104.435 98.090-2.098 0-4.182-0.062-6.25-0.184l0.285 0.013zM711.68 406.4v-10.56c-0.71-15.574-9.158-29.031-21.564-36.688l-0.196-0.112c-10.683-7.221-23.851-11.528-38.025-11.528-0.357 0-0.713 0.003-1.068 0.008l0.054-0.001h-257.92c-6.625-0.006-12.621-2.695-16.96-7.040v0l-136.32-129.92v112c0.001 0.095 0.002 0.207 0.002 0.32 0 13.608-11.032 24.64-24.64 24.64-0.001 0-0.001 0-0.002 0h-35.2c-1.671-0.178-3.61-0.28-5.572-0.28-28.255 0-51.594 21.046-55.197 48.317l-0.031 0.283v303.68c3.488 27.703 26.901 48.916 55.268 48.916 1.948 0 3.873-0.1 5.77-0.295l-0.238 0.020h471.040c1.659 0.175 3.584 0.276 5.532 0.276 28.367 0 51.779-21.213 55.239-48.641l0.028-0.274zM910.72 517.12c-3.798-27.743-27.343-48.889-55.828-48.889-1.864 0-3.706 0.091-5.523 0.267l0.231-0.018h-35.2c-13.608 0-24.64-11.032-24.64-24.64v0-112l-34.88 32c3.849 9.182 6.086 19.854 6.086 31.047 0 0.335-0.002 0.67-0.006 1.004v-0.051 303.68c-3.557 54.895-48.953 98.072-104.434 98.072-1.986 0-3.959-0.055-5.918-0.165l0.272 0.012h-333.12v32c3.637 27.73 27.119 48.918 55.55 48.918 1.962 0 3.899-0.101 5.809-0.298l-0.239 0.020h470.72c1.67 0.177 3.608 0.278 5.57 0.278 28.431 0 51.914-21.187 55.52-48.634l0.030-0.283zM614.080 619.2c0-13.608-11.032-24.64-24.64-24.64v0h-362.88c-13.608 0-24.64 11.032-24.64 24.64s11.032 24.64 24.64 24.64h362.88c13.536-0.178 24.462-11.104 24.64-24.623v-0.017zM464.96 483.52c-0.178-13.536-11.104-24.462-24.623-24.64h-212.497c-13.608 0-24.64 11.032-24.64 24.64s11.032 24.64 24.64 24.64h212.48c13.608 0 24.64-11.032 24.64-24.64v0z" />
<glyph unicode="&#xe008;" glyph-name="chevron-small-down" data-tags="chevron-small-down" d="M512 244.16c-0.113-0.001-0.247-0.001-0.381-0.001-24.825 0-47.308 10.024-63.623 26.245l0.004-0.004-357.76 356.16c-16.379 16.379-26.51 39.006-26.51 64 0 49.987 40.523 90.51 90.51 90.51 24.994 0 47.621-10.131 64-26.51v0l293.76-293.44 295.68 292.48c16.379 16.379 39.006 26.51 64 26.51 49.987 0 90.51-40.523 90.51-90.51 0-24.994-10.131-47.621-26.51-64v0l-359.68-355.2c-16.407-16.22-38.974-26.24-63.882-26.24-0.042 0-0.083 0-0.125 0h0.007z" />
<glyph unicode="&#xe009;" glyph-name="chevron-small-left" data-tags="chevron-small-left" d="M244.16 512c-0.001 0.113-0.001 0.247-0.001 0.381 0 24.825 10.024 47.308 26.245 63.623l-0.004-0.004 356.16 357.76c16.379 16.379 39.006 26.51 64 26.51 49.987 0 90.51-40.523 90.51-90.51 0-24.994-10.131-47.621-26.51-64v0l-293.44-293.76 292.48-295.68c16.379-16.379 26.51-39.006 26.51-64 0-49.987-40.523-90.51-90.51-90.51-24.994 0-47.621 10.131-64 26.51v0l-355.2 359.68c-16.22 16.407-26.24 38.974-26.24 63.882 0 0.042 0 0.083 0 0.125v-0.007z" />
<glyph unicode="&#xe00a;" glyph-name="chevron-small-right" data-tags="chevron-small-right" d="M753.6 448l-356.16-357.76c-16.379-16.379-39.006-26.51-64-26.51-49.987 0-90.51 40.523-90.51 90.51 0 24.994 10.131 47.621 26.51 64v0l293.44 293.76-292.48 294.72c-16.379 16.379-26.51 39.006-26.51 64 0 49.987 40.523 90.51 90.51 90.51 24.994 0 47.621-10.131 64-26.51v0l355.2-358.72c16.523-16.313 26.757-38.961 26.757-64s-10.234-47.687-26.747-63.991l-0.010-0.009z" />
<glyph unicode="&#xe00b;" glyph-name="chevron-small-up" data-tags="chevron-small-up" d="M512 779.84c0.113 0.001 0.247 0.001 0.381 0.001 24.825 0 47.308-10.024 63.623-26.245l-0.004 0.004 357.76-356.16c16.379-16.379 26.51-39.006 26.51-64 0-49.987-40.523-90.51-90.51-90.51-24.994 0-47.621 10.131-64 26.51v0l-293.76 293.44-294.72-292.48c-16.379-16.379-39.006-26.51-64-26.51-49.987 0-90.51 40.523-90.51 90.51 0 24.994 10.131 47.621 26.51 64v0l358.72 355.2c16.407 16.22 38.974 26.24 63.882 26.24 0.042 0 0.083 0 0.125 0h-0.007z" />
<glyph unicode="&#xe00c;" glyph-name="compass1" data-tags="compass" d="M749.12 379.84h-80.64l-58.24 284.16h4.8c10.25 0 18.56 8.31 18.56 18.56v0 111.68c0 10.25-8.31 18.56-18.56 18.56v0h-76.48v13.76h19.2c0.001 0 0.003 0 0.004 0 6.539 0 11.84 5.301 11.84 11.84 0 0.113-0.002 0.225-0.005 0.336v-0.016 111.36c0 6.539-5.301 11.84-11.84 11.84v0h-80.64c-6.468-0.173-11.667-5.372-11.84-11.824v-111.376c0-0.001 0-0.003 0-0.004 0-6.603 5.263-11.977 11.824-12.155h19.216v-13.76h-76.16c-10.25 0-18.56-8.31-18.56-18.56v0-111.68c0-10.25 8.31-18.56 18.56-18.56v0h2.24l-58.24-284.16h-89.28c-13.255 0-24-10.745-24-24s10.745-24 24-24v0h79.68l-29.44-143.040c-0.317-1.511-0.498-3.248-0.498-5.027 0-12.275 8.64-22.533 20.17-25.023l0.169-0.031 9.92-1.92-15.040-64c-0.385-1.61-0.606-3.459-0.606-5.36 0-11.429 7.988-20.991 18.686-23.41l0.161-0.031h5.12c11.361 0.166 20.824 8.097 23.327 18.715l0.033 0.165 15.36 65.92 13.76-2.88h5.12c0.042 0 0.091 0 0.14 0 12.264 0 22.488 8.733 24.793 20.319l0.027 0.161 34.24 165.44h72l34.56-167.68c2.457-11.728 12.685-20.419 24.953-20.48h5.127l13.44 2.88 15.040-65.92c2.536-10.783 11.999-18.714 23.342-18.88h5.458c10.706 2.563 18.542 12.052 18.542 23.371 0 1.925-0.227 3.798-0.655 5.592l0.033-0.163-14.72 64 10.24 2.24c11.699 2.521 20.338 12.778 20.338 25.053 0 1.779-0.181 3.515-0.527 5.192l0.028-0.165-29.12 143.040h70.72c13.255 0 24 10.745 24 24s-10.745 24-24 24v0zM619.52 379.84h-27.84l-50.88 247.040 7.68 37.12h12.8zM497.28 929.92h40.32v-71.36h-40.32zM471.68 664h12.48l7.68-37.12-50.56-247.040h-28.16zM403.52 195.52l-26.88 5.76 26.88 130.56h27.84zM490.24 379.84l26.24 128 25.92-128zM656 201.28l-26.56-5.76-28.16 136.32h28.16z" />
<glyph unicode="&#xe00d;" glyph-name="document" data-tags="document" d="M842.56 718.72v0l-244.8 241.28h-364.16c-0.191 0.001-0.416 0.002-0.642 0.002-49.614 0-89.876-40.039-90.238-89.568v-716.834c0.361-49.563 40.624-89.602 90.238-89.602 0.226 0 0.451 0.001 0.677 0.002h545.885c0.286-0.003 0.624-0.005 0.962-0.005 49.615 0 89.878 40.041 90.238 89.571v537.634zM618.56 860.16l143.36-141.12h-143.36zM778.56 120.32h-544.96c-0.117-0.001-0.255-0.002-0.393-0.002-18.123 0-32.957 14.080-34.161 31.897l-0.006 0.105v718.080c1.21 17.922 16.044 32.002 34.167 32.002 0.138 0 0.276-0.001 0.414-0.002h328.939v-211.2c0-15.552 12.608-28.16 28.16-28.16h224v-509.44c-0.346-18.467-15.397-33.304-33.914-33.304-0.452 0-0.902 0.009-1.35 0.026l0.064-0.002zM758.72 467.2c0-15.376-12.464-27.84-27.84-27.84v0h-448c-15.376 0-27.84 12.464-27.84 27.84s12.464 27.84 27.84 27.84v0h448c15.376 0 27.84-12.464 27.84-27.84v0zM758.72 288c0-0.001 0-0.001 0-0.002 0-15.44-12.426-27.977-27.823-28.158h-448.017c-15.552 0-28.16 12.608-28.16 28.16s12.608 28.16 28.16 28.16v0h448c15.275-0.358 27.52-12.825 27.52-28.153 0-0.003 0-0.005 0-0.008v0zM254.080 646.4c0.178 15.127 12.393 27.342 27.503 27.52h192.017c15.199 0 27.52-12.321 27.52-27.52s-12.321-27.52-27.52-27.52v0h-192c-15.127 0.178-27.342 12.393-27.52 27.503v0.017z" />
<glyph unicode="&#xe00e;" glyph-name="download" data-tags="download" d="M960 373.44v-184.96c-0.181-68.675-55.805-124.299-124.463-124.48h-647.057c-68.675 0.181-124.299 55.805-124.48 124.463v184.977c0 17.673 14.327 32 32 32s32-14.327 32-32v0-184.96c-0.001-0.095-0.001-0.208-0.001-0.321 0-33.225 26.935-60.16 60.16-60.16 0.113 0 0.226 0 0.338 0.001h647.023c0.095-0.001 0.208-0.001 0.321-0.001 33.225 0 60.16 26.935 60.16 60.16 0 0.113 0 0.226-0.001 0.338v-0.017 184.96c0 17.673 14.327 32 32 32s32-14.327 32-32v0zM489.28 352c2.853-2.922 6.252-5.296 10.035-6.96l0.205-0.080c3.681-1.61 7.969-2.551 12.477-2.56h0.003c4.518 0.087 8.795 1.019 12.711 2.645l-0.231-0.085c3.988 1.744 7.387 4.118 10.234 7.034l231.046 231.046c5.815 5.815 9.411 13.847 9.411 22.72 0 17.745-14.386 32.131-32.131 32.131-8.873 0-16.905-3.596-22.72-9.411v0l-176.32-177.6v477.12c0 17.673-14.327 32-32 32s-32-14.327-32-32v0-477.12l-176.32 176.32c-5.815 5.815-13.847 9.411-22.72 9.411-17.745 0-32.131-14.386-32.131-32.131 0-8.873 3.596-16.905 9.411-22.72v0z" />
<glyph unicode="&#xe00f;" glyph-name="email" data-tags="email" d="M519.36 64c-0.956-0.007-2.087-0.011-3.219-0.011-248.262 0-449.793 200.081-452.139 447.789l-0.002 0.223c2.348 247.931 203.879 448.011 452.141 448.011 1.132 0 2.263-0.004 3.392-0.012l-0.173 0.001c255.36 0 440.64-178.56 440.64-424.96 0-121.92-56.64-245.12-182.72-245.12-2.36-0.141-5.12-0.221-7.899-0.221-49.395 0-92.876 25.321-118.172 63.69l-0.329 0.531c-34.056-39.4-84.102-64.183-139.936-64.183-2.892 0-5.769 0.067-8.629 0.198l0.405-0.015c-0.129 0-0.283 0-0.436 0-54.463 0-104.656 18.288-144.771 49.058l0.567-0.418c-49.755 40.094-81.319 101.027-81.319 169.331 0 1.445 0.014 2.886 0.042 4.324l-0.003-0.215c-0.023 1.177-0.036 2.566-0.036 3.957 0 68.35 31.56 129.329 80.902 169.159l0.414 0.323c39.548 30.353 89.74 48.64 144.204 48.64 0.153 0 0.307 0 0.46 0h-0.024c0.412 0.003 0.899 0.005 1.387 0.005 49.703 0 95.039-18.699 129.357-49.447l-0.183 0.162v39.040h70.72v-281.28c0-57.92 24.32-86.080 74.24-86.080 69.44 0 111.040 66.88 111.040 178.56 0 211.2-155.2 358.4-377.28 358.4-208.677-1.449-377.283-170.95-377.283-379.831 0-0.565 0.001-1.131 0.004-1.696v0.087c1.45-210.975 172.813-381.443 383.991-381.443 0.566 0 1.131 0.001 1.696 0.004h-0.087c84.639 0.498 162.513 29.051 224.896 76.819l-0.896-0.659 5.12 3.84 38.72-57.6-4.8-3.52c-72.034-53.383-162.661-85.452-260.778-85.452-1.133 0-2.265 0.004-3.397 0.013l0.174-0.001zM502.72 667.52c-85.891 0-155.52-69.629-155.52-155.52s69.629-155.52 155.52-155.52v0c0.712-0.013 1.552-0.020 2.393-0.020 55.661 0 103.929 31.65 127.79 77.935l0.377 0.805v153.6c-24.578 47.116-73.070 78.729-128.945 78.729-0.568 0-1.135-0.003-1.701-0.010l0.086 0.001z" />
<glyph unicode="&#xe010;" glyph-name="facebook" data-tags="facebook" d="M611.2 64h-189.76v448h-96v154.56h96v92.48c0 126.080 53.44 200.96 205.76 200.96h128v-154.56h-80.32c-59.52 0-64-21.44-64-61.76v-77.12h143.68l-16.32-154.56h-128v-448z" />
<glyph unicode="&#xe011;" glyph-name="globe" data-tags="globe" d="M512 960v0c-247.424 0-448-200.576-448-448s200.576-448 448-448c247.424 0 448 200.576 448 448v0c0 247.424-200.576 448-448 448v0zM540.48 121.92h-6.080v163.84h137.6c-29.12-82.88-74.88-146.88-130.56-163.84zM352 285.76h136.64v-164.16h-5.12c-56 16.96-101.76 81.28-131.52 164.16zM121.6 487.68h138.88c1.832-56.301 9.428-109.9 22.23-161.442l-1.11 5.282h-116.8c-24.028 45.317-39.592 98.547-43.143 155.036l-0.057 1.124zM483.84 903.68h4.8v-174.72h-142.72c32.64 94.4 84.48 156.48 137.92 173.44zM678.72 730.24h-143.36v172.16h5.76c53.12-16.96 104.96-79.040 137.6-173.44zM692.48 682.56c11.31-44.381 18.257-95.551 19.191-148.188l0.009-0.612h-176.32v147.52zM488.64 682.56v-148.8h-175.36c1.009 53.274 7.835 104.448 19.869 153.578l-0.989-4.778zM260.48 532.48h-139.2c3.077 54.681 17.036 105.421 39.733 151.050l-1.013-2.25h118.080c-10.254-44.333-16.614-95.553-17.59-148.089l-0.010-0.711zM313.28 487.68h175.36v-156.16h-151.36c-12.931 46.122-21.536 99.582-23.947 154.65l-0.053 1.51zM535.36 331.52v156.16h176c-2.464-56.579-11.069-110.039-25.189-161.211l1.189 5.051zM764.16 487.68h138.24c-3.608-57.614-19.172-110.844-44.225-158.288l1.025 2.128h-116.16c11.869 46.343 19.475 99.957 21.095 155.074l0.025 1.086zM764.16 532.48c-1.097 53.308-7.568 104.508-18.896 153.853l0.976-5.053h117.76c21.476-43.415 35.221-94.182 38.040-147.844l0.040-0.956zM837.44 728.96h-103.36c-16.709 55.398-41.519 103.619-73.495 146.147l0.855-1.187c73.042-30.981 133.004-80.857 175.431-143.567l0.889-1.393zM363.52 874.24c-31.321-41.382-56.158-89.741-71.814-142.065l-0.826-3.215h-104.64c43.405 64.458 103.749 114.507 174.694 144.316l2.586 0.964zM192 285.76h102.4c16.713-52.223 40.57-97.596 70.916-137.797l-0.836 1.157c-70.697 29.415-129.139 76.334-171.674 135.462l-0.806 1.178zM659.52 149.44c29.227 38.973 52.869 84.239 68.541 133.076l0.899 3.244h103.040c-43.215-60.1-101.425-106.892-169.232-135.349l-2.608-0.971z" />
<glyph unicode="&#xe012;" glyph-name="hammer" data-tags="hammer" d="M872.32 709.12c-105.28 270.72-443.52 256-448 256-9.522-0.631-17.599-6.253-21.691-14.252l-0.069-0.148c-12.619-21.373-32.711-37.195-56.603-43.995l-0.677-0.165c-19.14 26.005-49.488 42.798-83.776 43.199l-0.064 0.001h-54.080c-31.812 0-57.6-25.788-57.6-57.6v0-128c0.18-31.739 25.861-57.42 57.583-57.6h54.097c0.13-0.001 0.284-0.001 0.438-0.001 37.965 0 71.251 20.035 89.862 50.108l0.261 0.453c16.902-2.316 31.569-10.473 42.182-22.334l0.058-0.066c6.713-8.873 10.752-20.093 10.752-32.256 0-1.599-0.070-3.183-0.207-4.746l0.014 0.203c-0.206-1.212-0.323-2.608-0.323-4.031 0-6.297 2.302-12.057 6.111-16.482l-0.028 0.033c4.723-5.499 11.685-8.96 19.454-8.96 0.023 0 0.046 0 0.069 0h2.236v-572.48c0 0 0-0.001 0-0.001 0-20.147 16.333-36.48 36.48-36.48 0.113 0 0.225 0.001 0.337 0.002h95.983c19.663 0.705 35.355 16.733 35.52 36.464v573.136c9.375 1.525 16.905 8.095 19.789 16.784l0.051 0.176 29.76 92.8c70.571-18.827 131.651-52.628 182.169-97.961l-0.409 0.361c4.576-4.335 10.772-7.001 17.59-7.001 5.381 0 10.375 1.66 14.496 4.497l-0.086-0.056c6.319 4.652 10.374 12.061 10.374 20.418 0 3.608-0.756 7.039-2.118 10.144l0.064-0.162zM537.92 121.28h-44.48v535.040h44.48zM635.2 832c-0.658 0.059-1.423 0.093-2.195 0.093-11.49 0-21.234-7.476-24.633-17.83l-0.052-0.183-32-96h-122.56c-2.832 17.67-9.975 33.305-20.314 46.28l0.154-0.2c-23.346 27.181-57.623 44.405-95.931 44.799l-0.069 0.001c-0.537 0.039-1.163 0.061-1.795 0.061-11.060 0-20.521-6.842-24.383-16.524l-0.062-0.177c-8.155-20.050-27.379-33.98-49.888-34.24h-54.112c-3.535 0-6.4 2.865-6.4 6.4v0 128c0 0.002 0 0.005 0 0.008 0 3.599 2.829 6.537 6.384 6.712l0.016 0.001h54.080c21.888-0.159 40.722-13.069 49.458-31.663l0.142-0.337c3.923-8.956 12.709-15.1 22.93-15.1 2.083 0 4.107 0.255 6.042 0.736l-0.172-0.036c41.599 7.636 77.010 29.866 101.487 61.079l0.273 0.361c48 0 214.4-10.56 320-122.56-36.545 20.288-79.278 34.542-124.691 40.148l-1.709 0.172z" />
<glyph unicode="&#xe013;" glyph-name="help" data-tags="help" d="M512 352c-17.673 0-32 14.327-32 32v0l-2.56 80c0.1 13.147 8.71 24.258 20.589 28.101l0.211 0.059s109.76 43.52 109.76 115.84c0 48.64-16.96 92.16-62.4 108.16-11.12 4.088-23.962 6.452-37.356 6.452-17.232 0-33.55-3.914-48.113-10.902l0.669 0.289c-27.827-13.093-49.077-36.321-59.272-64.807l-0.248-0.793c-4.906-11.764-16.313-19.882-29.617-19.882-3.245 0-6.378 0.483-9.33 1.381l0.227-0.059c-12.12 3.948-20.725 15.147-20.725 28.355 0 3.364 0.558 6.598 1.587 9.614l-0.062-0.209c24.549 68.532 88.937 116.678 164.571 116.678 21.322 0 41.751-3.826 60.636-10.83l-1.207 0.392c61.953-24.522 104.976-83.906 104.976-153.339 0-3.695-0.122-7.361-0.362-10.995l0.026 0.494c0-91.84-83.52-140.8-128-160v-64c0-17.673-14.327-32-32-32v0zM512 908.16c-201.92 0-392-192.96-392-396.16s190.080-396.16 392-396.16 394.24 192 394.24 396.16-192.32 396.16-394.24 396.16M512 960c232 0 448-216 448-448s-216-448-448-448-448 216.32-448 448 216 448 448 448zM512 288c-17.673 0-32-14.327-32-32s14.327-32 32-32c17.673 0 32 14.327 32 32v0c0 17.673-14.327 32-32 32v0z" />
<glyph unicode="&#xe014;" glyph-name="information" data-tags="information" d="M512 902.4c215.612 0 390.4-174.788 390.4-390.4s-174.788-390.4-390.4-390.4c-215.612 0-390.4 174.788-390.4 390.4v0c0.182 215.539 174.861 390.218 390.383 390.4h0.017M512 960c-247.424 0-448-200.576-448-448s200.576-448 448-448c247.424 0 448 200.576 448 448v0c0 247.424-200.576 448-448 448v0zM512 357.76c-20.138-0.013-36.458-16.341-36.458-36.48 0-20.147 16.333-36.48 36.48-36.48 19.697 0 35.748 15.611 36.456 35.135l0.002 0.065c0.014 0.382 0.022 0.83 0.022 1.28 0 20.147-16.333 36.48-36.48 36.48-0.008 0-0.016 0-0.024 0h0.001zM544 452.16v256c0 17.673-14.327 32-32 32s-32-14.327-32-32v0-256c0-17.673 14.327-32 32-32s32 14.327 32 32v0z" />
<glyph unicode="&#xe015;" glyph-name="instagram" data-tags="instagram" d="M957.44 696.64c-0.944 39.306-8.49 76.568-21.568 111.111l0.768-2.311c-23.963 60.346-70.854 107.237-129.642 130.653l-1.558 0.547c-32.232 12.31-69.494 19.856-108.394 20.792l-0.406 0.008c-47.68 2.56-63.040 2.56-184.64 2.56s-136.96 0-184.64-2.56c-39.306-0.944-76.568-8.49-111.111-21.568l2.311 0.768c-30.997-12.12-57.438-29.721-79.344-51.823l-0.016-0.017c-22.196-21.815-39.729-48.296-51.018-77.863l-0.502-1.497c-12.617-32.239-20.195-69.547-20.797-108.547l-0.003-0.253c-2.88-47.68-2.88-63.040-2.88-184.64s0-136.96 2.88-184.64c0.605-39.253 8.183-76.56 21.545-110.982l-0.745 2.182c23.62-60.378 70.502-107.26 129.335-130.346l1.545-0.534c32.215-12.584 69.486-20.257 108.438-21.114l0.362-0.006c47.68-1.92 64-2.56 184.64-2.56s136.96 0 184.64 2.56c39.314 0.863 76.585 8.536 111.030 21.88l-2.23-0.76c60.42 23.687 107.371 70.534 130.659 129.332l0.541 1.548c12.31 32.232 19.856 69.494 20.792 108.394l0.008 0.406c2.56 47.68 2.56 63.040 2.56 184.64s0 136.96-2.56 184.64zM876.8 330.88c-0.392-29.967-5.991-58.508-15.929-84.924l0.569 1.724c-15.557-39.060-45.986-69.384-84.11-84.448l-1.010-0.352c-24.669-9.512-53.2-15.224-83.006-15.678l-0.194-0.002c-47.36-1.92-61.44-2.56-181.12-2.56s-133.76 0-181.12 2.56c-29.999 0.456-58.531 6.168-84.9 16.251l1.7-0.571c-39.224 15.138-69.662 45.576-84.461 83.804l-0.339 0.996c-9.369 24.692-14.968 53.233-15.358 83.031l-0.002 0.169c-2.24 47.36-2.88 61.44-2.88 181.12s0 133.76 2.88 181.12c0.392 29.967 5.991 58.508 15.929 84.924l-0.569-1.724c7.098 20.131 18.028 37.346 32.016 51.536l-0.016-0.016c14.257 13.834 31.442 24.738 50.528 31.684l0.992 0.316c24.669 9.512 53.2 15.224 83.006 15.678l0.194 0.002c47.36 1.92 61.44 2.56 181.12 2.56v0c119.68 0 133.76 0 181.12-2.56 29.999-0.456 58.531-6.168 84.9-16.251l-1.7 0.571c20.131-7.098 37.346-18.028 51.536-32.016l-0.016 0.016c14.449-14.166 25.878-31.353 33.27-50.546l0.33-0.974c9.369-24.692 14.968-53.233 15.358-83.031l0.002-0.169c1.92-47.36 2.56-61.44 2.56-181.12s0.64-133.76-1.28-181.12zM512 742.080c-127.070 0-230.080-103.010-230.080-230.080s103.010-230.080 230.080-230.080c127.070 0 230.080 103.010 230.080 230.080v0c0 127.070-103.010 230.080-230.080 230.080v0zM512 362.56c-82.533 0-149.44 66.907-149.44 149.44s66.907 149.44 149.44 149.44c82.533 0 149.44-66.907 149.44-149.44v0c0-82.533-66.907-149.44-149.44-149.44v0zM804.8 751.040c0-29.691-24.069-53.76-53.76-53.76s-53.76 24.069-53.76 53.76c0 29.691 24.069 53.76 53.76 53.76v0c29.691 0 53.76-24.069 53.76-53.76v0z" />
<glyph unicode="&#xe016;" glyph-name="laminex-logo" data-tags="laminex-logo" horiz-adv-x="5120" d="M182.312 183.718h435.3v-160.627h-617.613v992.276h180.706zM1226.391 628.053c38.751-48.791 63.247-101.998 63.247-214.839v-390.124h-165.245v73.889l-15.46-20.078c-20.078-26.102-87.542-68.467-177.895-68.467-140.549 0-249.173 100.392-249.173 230.3 0 119.065 98.384 239.134 285.315 239.134 0.208 0 0.454 0.001 0.7 0.001 49.453 0 96.366-10.875 138.479-30.364l-2.043 0.848 12.649-6.425v14.456c0 85.936-56.822 135.529-155.206 135.529-69.015-3.543-132.675-23.523-188.064-56.067l1.937 1.052-55.015 131.715c73.994 43.179 162.89 68.67 257.74 68.67 0.518 0 1.035-0.001 1.552-0.002h-0.080c104.408 0 192.351-38.751 247.366-109.227zM1116.963 315.633l-4.417 2.61c-27.334 14.85-59.852 23.581-94.41 23.581-2.104 0-4.2-0.032-6.288-0.097l0.306 0.007c-72.282 0-156.21-27.106-156.21-101.998 0-49.594 44.173-85.735 104.609-85.735 62.653 0.744 118.225 30.42 154.074 76.263l0.329 0.437 1.807 2.811zM4962.786 860.16h-14.256v111.837h46.783c7.228 0 40.157 0 40.157-30.72 0.034-0.495 0.053-1.073 0.053-1.655 0-12.259-8.517-22.529-19.956-25.216l-0.175-0.035c15.26-4.417 18.071-13.453 18.874-27.909 0-19.075 0-21.685 3.614-26.303h-14.456c-2.61 3.614-2.61 6.425-3.614 20.078 0 18.071-3.614 27.106-28.913 27.106h-27.909zM4962.786 920.395h27.909c8.232 0 30.72 0 30.72 20.078s-20.078 18.071-27.909 18.071h-30.72zM4892.311 916.781c0 0.060 0 0.13 0 0.201 0 54.447 44.138 98.585 98.585 98.585s98.585-44.138 98.585-98.585c0-54.447-44.138-98.585-98.585-98.585-0.070 0-0.141 0-0.211 0h0.011c-0.179-0.001-0.391-0.002-0.602-0.002-54.447 0-98.585 44.138-98.585 98.585 0 0.001 0 0.001 0 0.002v0zM4906.767 916.781c0.458-46.557 38.306-84.123 84.928-84.123 46.907 0 84.932 38.025 84.932 84.932s-38.025 84.932-84.932 84.932c-0.352 0-0.703-0.002-1.053-0.006l0.053 0.001c-46.378-0.112-83.932-37.735-83.932-84.128 0-0.282 0.001-0.565 0.004-0.846v0.043zM4250.403 227.087l97.581-97.581c-69.673-73.414-167.958-119.088-276.911-119.088-1.472 0-2.942 0.008-4.41 0.025l0.224-0.002c-215.843 0-366.632 148.982-366.632 363.018 0 207.611 146.171 364.825 339.526 364.825 185.123 0 329.487-157.214 329.487-357.597 0.097-2.618 0.152-5.694 0.152-8.782 0-13.197-1.004-26.159-2.94-38.814l0.178 1.416h-499.15v-9.838c9.388-100.214 93.086-178.028 194.96-178.028 2.543 0 5.074 0.048 7.593 0.145l-0.363-0.011c71.348 1.303 135.308 31.873 180.577 80.175l0.129 0.139zM3876.543 455.58h315.231l-1.004 9.838c-9.771 75.505-73.467 133.298-150.745 133.722h-0.044c-80.314 0-152.596-60.235-162.435-132.718zM2214.249 735.473c-87.743 0-158.218-33.33-230.3-109.227l-7.228-7.228-6.425 7.228c-61.44 74.893-130.911 109.227-216.646 109.227-65.054 0-113.845-20.078-169.864-70.475l-14.456-12.649v68.668h-167.053v-697.926h174.281v460.398l1.807 2.811c27.106 33.33 71.278 90.353 155.206 90.353 0.565 0.010 1.232 0.015 1.9 0.015 38.573 0 72.869-18.311 94.669-46.715l0.209-0.283c28.11-29.917 38.952-67.865 38.952-128.1v-377.475h173.277v370.045c-0.007 27.697-1.977 54.926-5.779 81.566l0.358-3.059v3.614l1.807 2.811c16.264 24.295 66.861 98.384 162.635 98.384 0.506 0.008 1.103 0.012 1.702 0.012 38.571 0 72.866-18.31 94.667-46.713l0.209-0.283c27.106-29.716 37.948-67.664 37.948-128.1v-377.475h173.678v370.246c0 98.384-22.689 171.47-70.475 230.099-50.511 67.245-130.102 110.282-219.746 110.282-1.875 0-3.746-0.019-5.613-0.056l0.279 0.004zM3300.493 739.087c-0.521 0.003-1.137 0.005-1.754 0.005-74.454 0-142.689-26.626-195.703-70.876l0.487 0.395-14.456-11.645v65.857h-167.053v-697.123h174.281v458.792l1.807 1.807c42.528 54.178 107.336 89.198 180.39 91.149l0.316 0.007c1.863 0.078 4.048 0.123 6.245 0.123 41.841 0 79.908-16.159 108.3-42.577l-0.097 0.089c31.523-32.527 45.176-74.089 45.176-140.549v-370.648h175.686v355.79c0 112.841-21.685 186.127-72.082 245.559-58.506 68.897-144.798 112.663-241.341 113.843l-0.202 0.002zM4849.945 397.754l234.918 325.070h-198.776l-146.171-210.422-146.372 210.422h-198.576l234.717-325.070-268.248-373.86h206.005l173.277 248.37 173.478-248.37h205.804zM2624.050 23.893h174.281v698.93h-174.281zM2711.793 1015.366h-2.811c-54.763-0.888-98.815-45.489-98.815-100.38 0-0.852 0.011-1.701 0.032-2.547l-0.002 0.125c1.237-54.5 45.71-98.208 100.392-98.208 55.458 0 100.416 44.958 100.416 100.416 0 0.777-0.009 1.551-0.026 2.324l0.002-0.115s0 0 0 2.811c-2 53.202-45.613 95.573-99.122 95.573-0.023 0-0.046 0-0.070 0h0.004z" />
<glyph unicode="&#xe017;" glyph-name="leaf" data-tags="leaf" d="M858.88 459.2c0 68.16-24 305.28-332.48 495.36-4.097 2.554-9.072 4.068-14.4 4.068s-10.303-1.514-14.517-4.136l0.117 0.068c-308.48-190.080-332.48-427.2-332.48-495.36 0-128 117.12-256 315.2-269.76v-100.48c0-17.673 14.327-32 32-32s32 14.327 32 32v0 100.48c197.44 12.8 314.56 143.36 314.56 269.76zM544 243.84v78.72s0 0 0 0l130.88 128c4.902 4.919 7.933 11.705 7.933 19.2s-3.031 14.281-7.934 19.201l0.001-0.001c-4.97 4.921-11.81 7.961-19.36 7.961s-14.39-3.040-19.362-7.964l0.002 0.002-92.16-90.56v97.6l91.2 88.64c4.902 4.919 7.933 11.705 7.933 19.2s-3.031 14.281-7.934 19.201l0.001-0.001c-4.883 4.981-11.681 8.068-19.2 8.068s-14.317-3.087-19.196-8.064l-0.004-0.004-52.8-51.52v137.28c0 17.673-14.327 32-32 32s-32-14.327-32-32v0-132.8l-48 48.32c-4.738 4.109-10.965 6.613-17.777 6.613-15.022 0-27.2-12.178-27.2-27.2 0-7.131 2.744-13.62 7.233-18.471l-0.016 0.018 85.76-83.84v-96l-87.36 86.080c-4.97 4.921-11.81 7.961-19.36 7.961s-14.39-3.040-19.362-7.964l0.002 0.002c-4.902-4.919-7.933-11.705-7.933-19.2s3.031-14.281 7.934-19.201l-0.001 0.001 126.080-125.12v-84.16c-164.16 11.84-260.8 115.2-260.8 215.36 0.32 123.2 77.44 302.080 292.8 440 215.36-137.92 292.48-316.8 292.48-440 0-100.16-96.64-203.2-260.48-215.36z" />
<glyph unicode="&#xe018;" glyph-name="linkedin" data-tags="linkedin" d="M957.44 64h-198.080v314.88c0 82.56-32 138.88-99.2 138.88-45.065-1.572-82.54-32.309-94.228-73.846l-0.172-0.714c-3.137-11.457-4.939-24.611-4.939-38.186 0-4.13 0.167-8.22 0.494-12.266l-0.035 0.532v-329.28h-196.16s2.56 558.080 0 608h196.16v-96c11.84 41.6 74.24 101.12 174.4 101.12 124.16 0 221.76-87.36 221.76-275.84zM166.72 748.8v0c-1.373-0.067-2.982-0.105-4.599-0.105-55.67 0-100.8 45.13-100.8 100.8 0 1.725 0.043 3.44 0.129 5.144l-0.010-0.239c-0.049 1.18-0.077 2.565-0.077 3.957 0 56.2 45.56 101.76 101.76 101.76 1.715 0 3.421-0.042 5.115-0.126l-0.238 0.009c1.172 0.048 2.547 0.076 3.928 0.076 56.024 0 101.44-45.416 101.44-101.44 0-1.49-0.032-2.972-0.096-4.446l0.007 0.21c0.049-1.18 0.077-2.565 0.077-3.957 0-56.2-45.56-101.76-101.76-101.76-1.715 0-3.421 0.042-5.115 0.126l0.238-0.009zM83.84 672h174.72v-608h-174.72z" />
<glyph unicode="&#xe019;" glyph-name="list" data-tags="list" d="M911.36 224h-576c-26.51 0-48 21.49-48 48s21.49 48 48 48v0h576c26.51 0 48-21.49 48-48s-21.49-48-48-48v0zM192 272c0 26.51-21.49 48-48 48v0h-32c-26.51 0-48-21.49-48-48s21.49-48 48-48v0h32c26.51 0 48 21.49 48 48v0zM960 784c-0.181 26.549-21.745 48.001-48.319 48.001-0.113 0-0.226 0-0.338-0.001h-575.983c-26.51 0-48-21.49-48-48s21.49-48 48-48v0h576c0.095-0.001 0.208-0.001 0.321-0.001 26.574 0 48.138 21.452 48.319 47.984v0.017zM192 784c0 26.51-21.49 48-48 48v0h-32c-26.51 0-48-21.49-48-48s21.49-48 48-48v0h32c26.51 0 48 21.49 48 48v0zM960 528c-0.181 26.549-21.745 48.001-48.319 48.001-0.113 0-0.226 0-0.338-0.001h-575.983c-26.51 0-48-21.49-48-48s21.49-48 48-48v0h576c0.098-0.001 0.214-0.001 0.33-0.001 26.686 0 48.32 21.634 48.32 48.32 0 0.338-0.003 0.675-0.010 1.011l0.001-0.050zM192 528c0 26.51-21.49 48-48 48v0h-32c-26.51 0-48-21.49-48-48s21.49-48 48-48v0h32c0.005 0 0.011 0 0.017 0 26.51 0 48 21.49 48 48 0 0.45-0.006 0.899-0.019 1.346l0.001-0.066z" />
<glyph unicode="&#xe01a;" glyph-name="loading" data-tags="loading" d="M512 718.72c-22.798 0-41.28 18.482-41.28 41.28v0 165.44c0 22.798 18.482 41.28 41.28 41.28s41.28-18.482 41.28-41.28v0-165.44c0-22.798-18.482-41.28-41.28-41.28v0zM553.28 98.56v165.44c0 22.798-18.482 41.28-41.28 41.28s-41.28-18.482-41.28-41.28v0-165.44c0-22.798 18.482-41.28 41.28-41.28s41.28 18.482 41.28 41.28v0zM367.040 657.92c7.506 7.428 12.155 17.731 12.155 29.12s-4.648 21.692-12.151 29.117l-0.004 0.003-115.84 115.84c-7.607 10.142-19.603 16.634-33.115 16.634-22.798 0-41.28-18.482-41.28-41.28 0-12.871 5.89-24.366 15.123-31.936l0.073-0.058 116.16-117.12c7.477-7.512 17.825-12.16 29.259-12.16 0.064 0 0.127 0 0.191 0h-0.010c0.034 0 0.073 0 0.113 0 11.397 0 21.741 4.514 29.339 11.852l-0.012-0.012zM832 190.4c7.429 7.463 12.021 17.755 12.021 29.12s-4.593 21.657-12.023 29.122l0.002-0.002-116.16 117.12c-7.613 8.801-18.797 14.336-31.274 14.336-22.798 0-41.28-18.482-41.28-41.28 0-12.317 5.394-23.374 13.95-30.938l0.044-0.038 115.52-115.84c7.445-7.48 17.737-12.12 29.112-12.16h0.008c0.622-0.033 1.35-0.051 2.083-0.051 10.761 0 20.582 4.024 28.041 10.649l-0.043-0.038zM307.2 512c0 22.798-18.482 41.28-41.28 41.28v0h-164.16c-22.798 0-41.28-18.482-41.28-41.28s18.482-41.28 41.28-41.28v0h164.16c22.798 0 41.28 18.482 41.28 41.28v0zM963.52 512c0 22.798-18.482 41.28-41.28 41.28v0h-164.16c-22.798 0-41.28-18.482-41.28-41.28s18.482-41.28 41.28-41.28v0h164.16c22.798 0 41.28 18.482 41.28 41.28v0zM251.2 192l116.16 117.12c6.218 7.185 10.006 16.622 10.006 26.944 0 22.798-18.482 41.28-41.28 41.28-10.481 0-20.050-3.906-27.33-10.342l0.044 0.038-116.8-118.4c-7.429-7.463-12.021-17.755-12.021-29.12s4.593-21.657 12.023-29.122l-0.002 0.002c7.538-7.279 17.797-11.783 29.109-11.84h0.011c11.909 0.119 22.593 5.263 30.052 13.409l0.028 0.031zM715.2 659.52l116.8 115.84c9.305 7.628 15.195 19.123 15.195 31.994 0 22.798-18.482 41.28-41.28 41.28-13.512 0-25.508-6.492-33.039-16.527l-0.077-0.107-116.16-115.84c-7.506-7.428-12.155-17.731-12.155-29.12s4.648-21.692 12.151-29.117l0.004-0.003c7.462-7.208 17.593-11.695 28.772-11.84h0.028c0.148-0.002 0.323-0.003 0.498-0.003 11.435 0 21.784 4.65 29.26 12.161l0.002 0.002z" />
<glyph unicode="&#xe01b;" glyph-name="location" data-tags="location" d="M512 948.8c-201.12 0-364.16-163.040-364.16-364.16v0c0-283.2 364.16-525.76 364.16-525.76s364.16 242.56 364.16 525.76c0 201.12-163.040 364.16-364.16 364.16v0zM512 137.92c-49.842 38.469-94.139 78.303-135.284 121.185l-0.396 0.415c-74.88 79.36-164.48 200-164.48 325.12 0 165.774 134.386 300.16 300.16 300.16s300.16-134.386 300.16-300.16v0c0-196.48-213.76-380.48-300.16-446.72zM512 738.24c-0.095 0-0.207 0-0.32 0-84.831 0-153.6-68.769-153.6-153.6s68.769-153.6 153.6-153.6c84.831 0 153.6 68.769 153.6 153.599v0c0 0 0 0 0 0 0 84.718-68.587 153.418-153.263 153.6h-0.017zM512 495.36c-0.095 0-0.207-0.001-0.319-0.001-49.485 0-89.6 40.115-89.6 89.6s40.115 89.6 89.6 89.6c49.485 0 89.6-40.115 89.6-89.6 0-0.112 0-0.225-0.001-0.337v0.017c0-49.308-39.972-89.28-89.28-89.28v0z" />
<glyph unicode="&#xe01c;" glyph-name="menu" data-tags="menu" d="M96 848c-0.122 1.234-0.192 2.667-0.192 4.116 0 22.653 17.056 41.322 39.027 43.865l0.205 0.019h753.92c22.176-2.563 39.232-21.231 39.232-43.884 0-1.449-0.070-2.882-0.206-4.295l0.014 0.18c0.122-1.234 0.192-2.667 0.192-4.116 0-22.653-17.056-41.322-39.027-43.865l-0.205-0.019h-753.92c-22.176 2.563-39.232 21.231-39.232 43.884 0 1.449 0.070 2.882 0.206 4.295l-0.014-0.18zM888.96 560h-753.92c-22.176-2.563-39.232-21.231-39.232-43.884 0-1.449 0.070-2.882 0.206-4.295l-0.014 0.18c-0.122-1.234-0.192-2.667-0.192-4.116 0-22.653 17.056-41.322 39.027-43.865l0.205-0.019h753.92c22.176 2.563 39.232 21.231 39.232 43.884 0 1.449-0.070 2.882-0.206 4.295l0.014-0.18c0.122 1.234 0.192 2.667 0.192 4.116 0 22.653-17.056 41.322-39.027 43.865l-0.205 0.019zM888.96 224h-753.92c-22.578-4.658-39.312-24.375-39.312-48s16.734-43.342 38.995-47.945l0.317-0.055h753.92c22.578 4.658 39.312 24.375 39.312 48s-16.734 43.342-38.995 47.945l-0.317 0.055z" />
<glyph unicode="&#xe01d;" glyph-name="minus-solid" data-tags="minus-solid" d="M512 960c-247.424 0-448-200.576-448-448s200.576-448 448-448c247.424 0 448 200.576 448 448v0c0 247.424-200.576 448-448 448v0zM725.76 468.8h-427.52c-17.673 0-32 14.327-32 32s14.327 32 32 32v0h427.52c17.673 0 32-14.327 32-32s-14.327-32-32-32v0z" />
<glyph unicode="&#xe01e;" glyph-name="minus" data-tags="minus" d="M512 902.4c215.612 0 390.4-174.788 390.4-390.4s-174.788-390.4-390.4-390.4c-215.612 0-390.4 174.788-390.4 390.4v0c0.182 215.539 174.861 390.218 390.383 390.4h0.017M512 960c-247.424 0-448-200.576-448-448s200.576-448 448-448c247.424 0 448 200.576 448 448v0c0 247.424-200.576 448-448 448v0zM725.76 468.8h-427.52c-17.673 0-32 14.327-32 32s14.327 32 32 32v0h427.52c17.673 0 32-14.327 32-32s-14.327-32-32-32v0z" />
<glyph unicode="&#xe01f;" glyph-name="pencil" data-tags="pencil" d="M951.040 759.040l-192 192c-5.308 5.527-12.76 8.96-21.013 8.96-0.038 0-0.075 0-0.113 0h0.006c-8.351-0.209-15.875-3.586-21.449-8.969l-640.631-640.311c-5.12-5.449-8.356-12.721-8.638-20.745l-0.002-0.055-3.2-193.92c0.030-8.426 3.312-16.080 8.656-21.777l-0.016 0.017c5.565-5.374 13.089-8.751 21.4-8.959l0.040-0.001h1.92l195.2 3.2c8.195 0.201 15.593 3.452 21.137 8.656l-0.017-0.016 640 640c4.889 5.331 7.884 12.466 7.884 20.302 0 8.481-3.51 16.142-9.156 21.61l-0.008 0.008zM276.48 128l-151.68-3.2 3.2 151.68 489.6 489.6 149.44-149.44zM808.96 659.2l-149.76 149.76 78.72 78.4 149.44-149.44z" />
<glyph unicode="&#xe020;" glyph-name="phone" data-tags="phone" d="M809.28 66.88h-10.56c-134.558 14.644-256.281 59.298-361.698 127.106l3.298-1.986c-100.569 64.579-183.627 147.534-246.394 244.813l-1.926 3.187c-67.11 101.142-112.771 222.104-127.652 352.416l-0.348 3.744c-0.291 3.020-0.457 6.53-0.457 10.078 0 27.161 9.724 52.051 25.88 71.378l-0.143-0.176c18.704 22.079 45.477 36.82 75.711 39.646l0.449 0.034h128c0.661 0.014 1.44 0.022 2.22 0.022 55.903 0 102.101-41.55 109.397-95.453l0.063-0.57c5.232-38.869 14.307-73.964 27.014-107.264l-1.094 3.264c4.505-11.579 7.116-24.982 7.116-38.995 0-30.516-12.381-58.141-32.395-78.124l-32.001-32.001c49.821-78.468 114.842-142.876 191.378-190.525l2.542-1.475 32 32c20.344 19.889 48.209 32.16 78.939 32.16 13.933 0 27.277-2.523 39.601-7.136l-0.78 0.256c30.396-11.825 65.842-20.915 102.645-25.675l2.315-0.245c54.548-7.802 96.018-54.207 96.018-110.298 0-0.711-0.007-1.42-0.020-2.128l0.002 0.106v-118.080c-0.872-60.107-49.096-108.666-108.988-110.078l-0.132-0.002zM295.68 853.44h-124.48c-12.868-1.509-24.051-7.745-31.946-16.896l-0.054-0.064c-7.043-8.217-11.33-18.977-11.33-30.737 0-1.233 0.047-2.454 0.14-3.663l-0.010 0.161c13.782-123.175 55.582-234.378 118.852-330.15l-1.732 2.79c59.755-92.209 136.507-168.246 226.432-225.413l3.008-1.787c94.104-61.154 206.359-102.709 327.1-116.167l3.46-0.313h4.16c26.012 0.356 47.004 21.348 47.36 47.326v119.074c0.007 0.296 0.011 0.645 0.011 0.995 0 23.776-17.761 43.404-40.738 46.341l-0.232 0.024c-44.47 6.135-84.521 16.432-122.62 30.723l3.9-1.283c-5.014 1.869-10.808 2.951-16.854 2.951-13.184 0-25.166-5.144-34.050-13.534l0.024 0.022-50.24-49.92c-5.785-5.755-13.76-9.312-22.566-9.312-5.824 0-11.284 1.556-15.988 4.274l0.154-0.082c-105.219 59.894-190.329 144.184-249.494 245.479l-1.706 3.161c-2.709 4.599-4.308 10.131-4.308 16.037 0 8.864 3.604 16.887 9.427 22.682l0.001 0.001 50.56 49.92c8.423 8.353 13.637 19.929 13.637 32.723 0 5.954-1.129 11.645-3.186 16.869l0.108-0.313c-13.145 34.024-23.549 73.843-29.416 115.124l-0.344 2.956c-3.686 22.8-23.227 40.001-46.785 40.001-0.090 0-0.179 0-0.269-0.001h0.014zM775.68 579.84c14.38 3.339 24.932 16.042 24.932 31.21 0 2.205-0.223 4.357-0.648 6.436l0.035-0.206c-18.579 91.996-90.2 163.187-180.952 180.885l-1.448 0.235c-1.828 0.364-3.93 0.572-6.080 0.572-17.989 0-32.572-14.583-32.572-32.572 0-15.839 11.305-29.037 26.287-31.966l0.206-0.034c66.654-12.857 118.496-64.162 131.975-129.486l0.185-1.074c2.952-14.871 15.894-25.925 31.418-25.925 0.205 0 0.409 0.002 0.612 0.006h-0.031zM932.8 579.84c15.599 2.313 27.432 15.611 27.432 31.672 0 1.356-0.084 2.693-0.248 4.004l0.016-0.157c-21.116 180.626-163.895 322.2-343.266 341.294l-1.694 0.146c-1.056 0.123-2.28 0.193-3.52 0.193-17.78 0-32.193-14.413-32.193-32.193 0-16.54 12.473-30.166 28.526-31.986l0.147-0.014c151.047-16.134 270.161-134.154 287.852-283.271l0.148-1.529c1.833-16.093 15.373-28.481 31.806-28.481 0.068 0 0.136 0 0.205 0.001h-0.010z" />
<glyph unicode="&#xe021;" glyph-name="pintrest" data-tags="pintrest" d="M532.8 960c195.2 0 323.84-142.080 323.84-294.72 0-201.92-111.68-352-275.84-352-1.188-0.035-2.586-0.054-3.989-0.054-50.131 0-94.383 25.169-120.809 63.56l-0.322 0.494s-29.76-118.72-35.84-141.44c-22.174-64.685-53.592-120.665-93.286-169.667l0.806 1.027c-1.296-1.461-3.178-2.376-5.274-2.376-3.37 0-6.187 2.368-6.878 5.53l-0.009 0.047c-4.733 27.967-7.438 60.185-7.438 93.035 0 36.22 3.288 71.671 9.582 106.072l-0.545-3.588c9.92 40.96 67.2 278.080 67.2 278.080-10.324 23.334-16.335 50.548-16.335 79.165 0 0.856 0.005 1.711 0.016 2.565l-0.001-0.13c0 76.16 43.84 133.12 98.56 133.12 0.15 0.001 0.328 0.002 0.505 0.002 37.997 0 68.8-30.803 68.8-68.8 0-2.933-0.184-5.823-0.54-8.66l0.035 0.338c0-47.040-29.76-117.44-45.12-182.72-1.556-5.885-2.45-12.642-2.45-19.607 0-44.006 35.674-79.68 79.68-79.68 1.312 0 2.617 0.032 3.913 0.094l-0.183-0.007c96 0 161.92 125.12 161.92 273.6 0 112.96-75.2 197.44-212.8 197.44-2.586 0.099-5.623 0.155-8.673 0.155-134.139 0-242.88-108.741-242.88-242.88 0-1.405 0.012-2.806 0.036-4.205l-0.003 0.21c-0.085-1.887-0.134-4.1-0.134-6.324 0-35.251 12.232-67.645 32.682-93.17l-0.228 0.294c5.676-4.553 9.279-11.489 9.279-19.266 0-3.442-0.706-6.719-1.98-9.695l0.061 0.161c-2.56-9.28-8-32-10.56-41.28-1.382-8.459-8.637-14.837-17.382-14.837-3.006 0-5.837 0.754-8.312 2.083l0.094-0.046c-71.36 29.44-104.64 108.16-104.64 196.48 0 146.24 122.56 321.6 365.44 321.6z" />
<glyph unicode="&#xe022;" glyph-name="play" data-tags="play" d="M263.36 75.52l600.64 363.2c24.764 15.481 40.994 42.599 40.994 73.507 0 16.335-4.533 31.612-12.41 44.64l0.217-0.386c-7.179 11.915-16.885 21.621-28.428 28.592l-0.372 0.208-600.64 363.2c-12.107 7.142-26.676 11.362-42.23 11.362-31.505 0-58.966-17.311-73.392-42.94l-0.218-0.422c-6.998-12.047-11.238-26.459-11.519-41.838l-0.001-0.082v-726.4c0.721-46.634 38.693-84.161 85.43-84.161 0.116 0 0.232 0 0.347 0.001h-0.018c15.353 0.28 29.658 4.521 42.009 11.741l-0.409-0.221zM413.12 512" />
<glyph unicode="&#xe023;" glyph-name="plus-solid" data-tags="plus-solid" d="M512 960c-247.424 0-448-200.576-448-448s200.576-448 448-448c247.424 0 448 200.576 448 448v0c0 247.424-200.576 448-448 448v0zM768 512c0-17.673-14.327-32-32-32v0h-192v-192c0-17.673-14.327-32-32-32s-32 14.327-32 32v0 192h-192c-17.673 0-32 14.327-32 32v0c0 17.673 14.327 32 32 32v0h192v192c0 17.673 14.327 32 32 32s32-14.327 32-32v0-192h192c17.673 0 32-14.327 32-32v0z" />
<glyph unicode="&#xe024;" glyph-name="plus" data-tags="plus" d="M512 960c-247.424 0-448-200.576-448-448s200.576-448 448-448c247.424 0 448 200.576 448 448v0c0 247.424-200.576 448-448 448v0zM512 121.6c-215.612 0-390.4 174.788-390.4 390.4s174.788 390.4 390.4 390.4c215.612 0 390.4-174.788 390.4-390.4v0c-0.182-215.539-174.861-390.218-390.383-390.4h-0.017zM768 512c0-17.673-14.327-32-32-32v0h-192v-192c0-17.673-14.327-32-32-32s-32 14.327-32 32v0 192h-192c-17.673 0-32 14.327-32 32v0c0 17.673 14.327 32 32 32v0h192v192c0 17.673 14.327 32 32 32s32-14.327 32-32v0-192h192c17.673 0 32-14.327 32-32v0z" />
<glyph unicode="&#xe025;" glyph-name="products" data-tags="products" d="M384 384v-256h-256v256h256M416 448h-320c-17.673 0-32-14.327-32-32v0-320c0-17.673 14.327-32 32-32v0h320c17.673 0 32 14.327 32 32v0 320c0 17.673-14.327 32-32 32v0zM896 384v-256h-256v256h256M928 448h-320c-17.673 0-32-14.327-32-32v0-320c0-17.673 14.327-32 32-32v0h320c17.673 0 32 14.327 32 32v0 320c0 17.673-14.327 32-32 32v0zM384 896v-256h-256v256h256M416 960h-320c-17.673 0-32-14.327-32-32v0-320c0-17.673 14.327-32 32-32v0h320c17.673 0 32 14.327 32 32v0 320c0 17.673-14.327 32-32 32v0zM896 896v-256h-256v256h256M928 960h-320c-17.673 0-32-14.327-32-32v0-320c0-17.673 14.327-32 32-32v0h320c17.673 0 32 14.327 32 32v0 320c0 17.673-14.327 32-32 32v0z" />
<glyph unicode="&#xe026;" glyph-name="quick-order" data-tags="quick-order" d="M881.92 782.080l-332.8 164.8c-10.831 5.442-23.604 8.628-37.12 8.628s-26.289-3.186-37.606-8.849l0.486 0.22-332.8-164.8c-27.432-13.65-45.973-41.447-46.080-73.586v-392.654c0-0.063 0-0.138 0-0.214 0-32.131 18.426-59.958 45.288-73.491l0.472-0.215 332.8-164.8c10.707-5.646 23.4-8.96 36.866-8.96 0.089 0 0.178 0 0.268 0h-0.014c0.078 0 0.171 0 0.264 0 13.571 0 26.369 3.313 37.628 9.175l-0.452-0.214 332.8 164.8c27.482 13.592 46.054 41.424 46.080 73.597v392.963c-0.107 32.153-18.648 59.95-45.603 73.385l-0.477 0.215zM503.36 889.6c2.533 1.207 5.504 1.912 8.64 1.912s6.107-0.705 8.764-1.965l-0.124 0.053 298.24-147.84-100.16-49.92-327.68 142.080zM512 588.48l-335.68 139.2 145.6 72.32c3.366-4.755 7.779-8.553 12.919-11.11l0.201-0.090 308.48-133.76zM171.52 300.48c-6.344 2.532-10.874 8.346-11.515 15.288l-0.005 0.072v349.44l320-133.12v-386.56zM854.72 300.48l-310.72-154.56v387.52l193.92 96.64 126.080 64v-378.56c-0.171-7.174-4.388-13.324-10.45-16.272l-0.11-0.048z" />
<glyph unicode="&#xe027;" glyph-name="sample-basket" data-tags="sample-basket" d="M755.84 672l-45.76 183.36c-10.712 42.701-49.096 72.64-93.12 72.64h-220.16c-44.024 0-82.408-29.939-93.12-72.64l-45.76-183.36h-193.92l125.76-503.36c10.712-42.701 49.096-72.64 93.12-72.64h448c44.024 0 82.408 29.939 93.12 72.64l125.76 503.36h-193.92zM474.88 352v-192h-69.44l-36.16 192h105.6zM357.44 416l-36.16 192h153.6v-192h-117.44zM538.88 352h105.6l-36.16-192h-69.44v192zM538.88 416v192h153.6l-36.16-192h-117.44zM757.44 608h110.4l-48-192h-98.56l36.16 192zM365.76 839.68c3.61 14.63 16.938 24.759 32 24.32h220.16c15.062 0.439 28.39-9.69 32-24.32l40-167.68h-366.080l41.92 167.68zM256.32 608l36.16-192h-98.56l-48 192h110.4zM250.88 184.32l-40.96 167.68h96l35.84-192h-58.88c-15.062-0.439-28.39 9.69-32 24.32v0zM760.96 184.32c-3.438-13.935-15.734-23.877-30.080-24.32h-57.28l35.84 192h96l-44.48-167.68z" />
<glyph unicode="&#xe028;" glyph-name="search" data-tags="search" d="M930.24 151.36l-200 198.72c43.642 61.641 69.761 138.374 69.761 221.208 0 0.307 0 0.613-0.001 0.92v-0.048c0.044 2.125 0.069 4.629 0.069 7.139 0 201.111-160.625 364.705-360.584 369.492l-0.445 0.008c-200.544-4.62-361.349-168.285-361.349-369.508 0-2.508 0.025-5.010 0.075-7.506l-0.006 0.373c-0.044-2.122-0.069-4.624-0.069-7.132 0-201.223 160.805-364.888 360.92-369.5l0.429-0.008c92.929 0.523 177.243 36.976 239.847 96.156l-0.167-0.156 196.16-195.52c7.015-6.791 16.588-10.976 27.139-10.976 21.561 0 39.040 17.479 39.040 39.040 0 10.471-4.122 19.979-10.833 26.99l0.014-0.014zM439.040 273.28c-157.457 4.761-283.288 133.543-283.288 291.715 0 2.52 0.032 5.032 0.095 7.536l-0.007-0.371c-0.061 2.229-0.096 4.853-0.096 7.485 0 158.174 125.835 286.958 282.859 291.704l0.437 0.010c157.46-4.757 283.296-133.54 283.296-291.715 0-2.632-0.035-5.256-0.104-7.871l0.008 0.386c0.056-2.134 0.088-4.646 0.088-7.165 0-158.172-125.831-286.954-282.851-291.704l-0.437-0.010z" />
<glyph unicode="&#xe029;" glyph-name="share" data-tags="share" d="M761.6 377.6c-45.953-0.067-87.233-20.013-115.714-51.697l-0.126-0.143-235.2 136.96c5.469 14.661 8.634 31.601 8.634 49.28s-3.165 34.619-8.959 50.284l0.325-1.004 235.2 137.28c28.452-32.059 69.764-52.16 115.771-52.16 0.024 0 0.048 0 0.072 0h-0.004c0.892-0.018 1.944-0.028 2.998-0.028 88.366 0 160 71.634 160 160s-71.634 160-160 160c-88.366 0-160-71.634-160-160 0-18.789 3.239-36.822 9.188-53.571l-0.347 1.119-235.2-137.28c-28.452 32.059-69.764 52.16-115.771 52.16-0.024 0-0.048 0-0.072 0h0.004c-86.598 0-156.8-70.202-156.8-156.8s70.202-156.8 156.8-156.8v0c0.020 0 0.044 0 0.069 0 46.007 0 87.319 20.101 115.633 52.001l0.139 0.159 235.2-136.96c-5.231-14.75-8.374-31.765-8.639-49.477l-0.001-0.123c0-86.598 70.202-156.8 156.8-156.8s156.8 70.202 156.8 156.8c0 86.598-70.202 156.8-156.8 156.8v0zM761.6 896c51.252 0 92.8-41.548 92.8-92.8s-41.548-92.8-92.8-92.8c-51.252 0-92.8 41.548-92.8 92.8v0c0 51.252 41.548 92.8 92.8 92.8v0zM262.4 419.2c-51.252 0-92.8 41.548-92.8 92.8s41.548 92.8 92.8 92.8c51.252 0 92.8-41.548 92.8-92.8v0c0-51.252-41.548-92.8-92.8-92.8v0zM761.6 128c-51.252 0-92.8 41.548-92.8 92.8v0c0.071 17.127 4.819 33.13 13.032 46.816l-0.232-0.416c16.35 27.568 45.956 45.76 79.811 45.76 51.075 0 92.48-41.405 92.48-92.48 0-51.009-41.297-92.372-92.281-92.48h-0.010z" />
<glyph unicode="&#xe02a;" glyph-name="stack" data-tags="stack" d="M512 480c-5.046 0.139-9.762 1.424-13.937 3.604l0.177-0.084-416 206.72c-10.847 5.254-18.203 16.163-18.24 28.795v0.005c0.28 11.886 6.998 22.14 16.791 27.436l416.169 207.124c3.993 2.125 8.731 3.372 13.76 3.372s9.767-1.248 13.921-3.45l-0.161 0.078 416-207.040c9.962-5.38 16.68-15.634 16.959-27.482l0.001-0.038c-0.157-12.010-6.908-22.409-16.791-27.756l-416.169-206.804c-3.573-2.242-7.79-3.823-12.311-4.46l-0.169-0.020zM164.8 719.040l347.2-172.48 347.2 172.48-347.2 172.48zM525.76 70.4l416 207.040c6.655 5.892 10.83 14.457 10.83 23.996 0 17.673-14.327 32-32 32-2.247 0-4.441-0.232-6.557-0.672l0.208 0.036-402.24-200.32-403.2 200.32c-1.909 0.405-4.102 0.636-6.35 0.636-17.673 0-32-14.327-32-32 0-9.54 4.174-18.104 10.796-23.967l0.034-0.029 416-207.040c4.026-1.962 8.759-3.109 13.76-3.109s9.734 1.147 13.95 3.193l-0.19-0.083zM525.76 277.44l416 207.040c14.958 2.879 26.104 15.864 26.104 31.452 0 17.673-14.327 32-32 32-8.348 0-15.95-3.197-21.647-8.433l0.023 0.021-402.24-200-403.2 200c-1.773 0.348-3.811 0.548-5.896 0.548-17.673 0-32-14.327-32-32 0-9.325 3.988-17.718 10.353-23.567l0.023-0.021 416-207.040c4.026-1.962 8.759-3.109 13.76-3.109s9.734 1.147 13.95 3.193l-0.19-0.083z" />
<glyph unicode="&#xe02b;" glyph-name="swatch" data-tags="swatch" d="M778.88 903.68c22.043-0.167 39.933-17.72 40.638-39.615l0.002-0.065v-704c0 0 0-0.001 0-0.001 0-22.509-18.156-40.777-40.623-40.959h-533.777c-22.484 0.181-40.64 18.45-40.64 40.959 0 0 0 0.001 0 0.001v0 704c0.707 21.96 18.597 39.513 40.624 39.68h533.776M778.88 960h-533.76c-53.019 0-96-42.981-96-96v0-704c0-53.019 42.981-96 96-96v0h533.76c53.019 0 96 42.981 96 96v0 704c0 53.019-42.981 96-96 96v0zM416 364.48c0 13.962-11.318 25.28-25.28 25.28v0h-87.68c-12.686-1.476-22.44-12.159-22.44-25.12s9.754-23.644 22.322-25.109l0.118-0.011h88c13.713 0.178 24.782 11.247 24.96 24.943v0.017zM551.36 239.36c0 0.001 0 0.001 0 0.002 0 13.785-11.175 24.96-24.96 24.96-0.113 0-0.225-0.001-0.337-0.002h-223.983c-12.686-1.476-22.44-12.159-22.44-25.12s9.754-23.644 22.322-25.109l0.118-0.011h224c0.095-0.001 0.207-0.002 0.32-0.002 13.962 0 25.28 11.318 25.28 25.28 0 0.001 0 0.001 0 0.002v0zM516.16 630.72c-0.095 0-0.207-0.001-0.32-0.001-44.713 0-80.96 36.247-80.96 80.96s36.247 80.96 80.96 80.96c44.713 0 80.96-36.247 80.96-80.959v0c0-0.095 0.001-0.208 0.001-0.321 0-44.424-35.922-80.458-80.303-80.639h-0.017zM516.16 747.52c-0.095 0.001-0.207 0.001-0.319 0.001-19.971 0-36.16-16.189-36.16-36.16s16.189-36.16 36.16-36.16c19.971 0 36.16 16.189 36.16 36.16 0 0.112-0.001 0.224-0.002 0.336v-0.017c0 0 0 0.001 0 0.001 0 19.681-15.864 35.657-35.503 35.838h-0.017z" />
<glyph unicode="&#xe02c;" glyph-name="thin-arrow-left" data-tags="thin-arrow-left" d="M420.16 153.6l35.52 35.84-249.28 286.72h753.6v71.68h-753.6l249.28 286.72-35.52 35.84-356.16-358.4 356.16-358.4z" />
<glyph unicode="&#xe02d;" glyph-name="thin-arrow-right" data-tags="thin-arrow-right" d="M603.84 153.6l-35.52 35.84 249.28 286.72h-753.6v71.68h753.6l-249.28 286.72 35.52 35.84 356.16-358.4-356.16-358.4z" />
<glyph unicode="&#xe02e;" glyph-name="tick-circle" data-tags="tick-circle" d="M512 64v0c-247.424 0-448 200.576-448 448s200.576 448 448 448v0c0.113 0 0.247 0 0.381 0 65.942 0 128.526-14.381 184.785-40.177l-2.766 1.137c10.907-5.255 18.3-16.224 18.3-28.919 0-4.584-0.964-8.944-2.7-12.886l0.081 0.205c-5.261-10.891-16.221-18.271-28.905-18.271-4.836 0-9.421 1.073-13.531 2.993l0.197-0.082c-44.849 20.23-97.23 32.016-152.364 32.016-1.222 0-2.442-0.006-3.662-0.017l0.186 0.001c-212.077 0-384-171.923-384-384v0c0-212.077 171.923-384 384-384v0 0c212.077 0 384 171.923 384 384v0 38.4c0 17.673 14.327 32 32 32s32-14.327 32-32v0-38.4c0-247.424-200.576-448-448-448v0zM535.040 406.080l416 416c5.563 5.75 8.992 13.594 8.992 22.24s-3.429 16.49-9 22.249l0.008-0.009c-5.8 5.846-13.837 9.466-22.72 9.466s-16.92-3.619-22.718-9.463l-393.602-393.602-101.76 103.040c-5.8 5.846-13.837 9.466-22.72 9.466s-16.92-3.619-22.718-9.463l-0.002-0.002c-5.563-5.75-8.992-13.594-8.992-22.24s3.429-16.49 9-22.249l-0.008 0.009 124.8-124.8c5.829-6.041 13.996-9.793 23.040-9.793s17.211 3.752 23.031 9.783l0.009 0.010z" />
<glyph unicode="&#xe02f;" glyph-name="tick-thick" data-tags="tick-thick" d="M387.2 392.64l429.76 517.44 143.040-126.080-556.48-670.080-339.52 321.28 128 143.040z" />
<glyph unicode="&#xe030;" glyph-name="tick-thin" data-tags="tick-thin" d="M406.4 292.48v0c-8.901 0.038-16.938 3.704-22.715 9.595l-163.525 163.525c-6.048 5.886-9.8 14.105-9.8 23.2 0 17.872 14.488 32.36 32.36 32.36 8.777 0 16.738-3.494 22.567-9.167l-0.007 0.007 141.12-140.8 352 352c5.559 4.783 12.847 7.695 20.815 7.695 17.673 0 32-14.327 32-32 0-7.968-2.912-15.255-7.73-20.857l0.035 0.042-374.4-376c-5.782-5.896-13.819-9.562-22.713-9.6h-0.007z" />
<glyph unicode="&#xe031;" glyph-name="tick" data-tags="tick" d="M191.36 578.24l-127.36-143.040 339.52-321.28 556.48 670.080-143.040 126.080-429.76-517.44-195.84 185.6zM191.36 578.24l-127.36-143.040 339.52-321.28 556.48 670.080-143.040 126.080-429.76-517.44-195.84 185.6z" />
<glyph unicode="&#xe032;" glyph-name="trash" data-tags="trash" d="M896 800h-185.6v46.080c0 62.916-51.004 113.92-113.92 113.92v0h-167.040c-60.515-0.137-109.519-49.226-109.519-109.76 0-1.463 0.029-2.919 0.085-4.369l-0.006 0.208v-46.080h-192c-17.673 0-32-14.327-32-32v0c0-17.673 14.327-32 32-32v0h64v-558.080c0-0.097 0-0.212 0-0.327 0-62.29 50.134-112.87 112.252-113.592l0.068-0.001h417.6c62.74 0 113.6 50.86 113.6 113.6v0 558.4h60.48c17.264 0.982 31.018 14.736 31.996 31.91l0.004 0.090c-0.982 17.264-14.736 31.018-31.91 31.996l-0.090 0.004zM380.8 846.080c-0.045 0.771-0.070 1.672-0.070 2.579 0 26.156 21.204 47.36 47.36 47.36 0.475 0 0.948-0.007 1.419-0.021l-0.069 0.002h167.040c0.67 0.031 1.454 0.049 2.243 0.049 28.069 0 50.863-22.587 51.196-50.578v-45.472h-269.12zM775.36 177.92c0-29.514-23.926-53.44-53.44-53.44h-416c-29.514 0-53.44 23.926-53.44 53.44v558.080h522.88zM384 315.52v233.28c0 17.673 14.327 32 32 32s32-14.327 32-32v0-233.28c0-17.673-14.327-32-32-32s-32 14.327-32 32v0zM576 315.52v233.28c0 17.673 14.327 32 32 32s32-14.327 32-32v0-233.28c0-17.673-14.327-32-32-32s-32 14.327-32 32v0z" />
<glyph unicode="&#xe033;" glyph-name="truck" data-tags="truck" d="M944 776h-280v80h-261.12l-343.040-539.2c-2.545-3.565-4.093-7.995-4.16-12.784v-0.016c0.178-13.183 10.817-23.822 23.983-24h109.457c13.953-54.819 62.877-94.717 121.12-94.717s107.167 39.898 120.933 93.853l0.187 0.864h128c13.953-54.819 62.877-94.717 121.12-94.717s107.167 39.898 120.933 93.853l0.187 0.864h165.12v472c-0.145 12.755-10.087 23.143-22.645 23.996l-0.075 0.004zM824 728h96v-176h-96zM310.080 232.96c-42.769 0-77.439 34.671-77.439 77.44s34.671 77.44 77.44 77.44c42.769 0 77.44-34.671 77.44-77.44 0-0.113 0-0.225-0.001-0.337v0.017c0 0 0 0 0-0.001 0-42.592-34.528-77.12-77.12-77.12-0.112 0-0.225 0-0.337 0.001h0.017zM558.080 328.96h-124.16c-8.513 61.374-60.638 108.118-123.68 108.118s-115.167-46.744-123.605-107.463l-0.075-0.655h-64l305.28 480h186.88v-392.96c-30.244-19.393-51.333-50.805-56.562-87.334l-0.078-0.666zM681.92 232.96c-0.095 0-0.207-0.001-0.319-0.001-42.769 0-77.44 34.671-77.44 77.44s34.671 77.44 77.44 77.44c42.769 0 77.44-34.671 77.44-77.44 0-0.112 0-0.224-0.001-0.337v0.017c0-42.592-34.528-77.12-77.12-77.12v0zM805.44 328.96c-8.91 60.996-60.776 107.336-123.501 107.52h-0.019c-6.552-0.225-12.737-0.799-18.812-1.71l0.892 0.11v293.12h112v-224h144v-176zM56 720c0.178 13.183 10.817 23.822 23.983 24h192.017c13.255 0 24-10.745 24-24s-10.745-24-24-24v0h-192c-13.183 0.178-23.822 10.817-24 23.983v0.017zM51.52 624c0 13.255 10.745 24 24 24v0h136.96c13.255 0 24-10.745 24-24s-10.745-24-24-24v0h-136.96c-13.255 0-24 10.745-24 24v0zM70.080 504c-13.255 0-24 10.745-24 24s10.745 24 24 24v0h81.92c13.255 0 24-10.745 24-24s-10.745-24-24-24v0z" />
<glyph unicode="&#xe034;" glyph-name="twitter" data-tags="twitter" d="M868.16 694.4c0-7.68 0-15.68 0-23.68 0-242.56-184.96-522.88-523.2-522.88-104.371 0.079-201.538 30.856-282.978 83.789l2.018-1.229c13.106-1.581 28.336-2.51 43.772-2.56h0.068c0.217 0 0.474-0.001 0.73-0.001 86.254 0 165.553 29.778 228.177 79.615l-0.747-0.574c-80.166 1.485-147.636 54.194-171.156 126.703l-0.364 1.297c10.342-1.948 22.284-3.109 34.48-3.2h0.080c0.089 0 0.193 0 0.298 0 17.084 0 33.622 2.336 49.312 6.707l-1.29-0.307c-84.723 17.715-147.456 91.762-147.52 180.473v1.927c24.095-13.575 52.716-21.987 83.209-23.032l0.311-0.008c-48.881 33.504-80.535 89.048-80.535 151.985 0 34.211 9.353 66.238 25.641 93.662l-0.466-0.847c91.161-111.248 225.799-183.943 377.585-191.946l1.295-0.054c-3.034 12.51-4.774 26.873-4.774 41.642 0 101.62 82.38 184 184 184 52.804 0 100.412-22.243 133.967-57.869l0.087-0.093c44.041 8.794 83.175 24.229 118.469 45.409l-1.669-0.929c-14.539-43.645-43.766-79.098-81.695-101.292l-0.865-0.468c39.227 4.965 74.873 15.201 107.983 30.077l-2.383-0.957c-25.358-37.272-55.806-68.84-90.783-94.617l-1.057-0.743z" />
<glyph unicode="&#xe035;" glyph-name="user" data-tags="user" d="M512 503.040c121.913 2.331 219.849 101.709 219.849 223.962 0 0.689-0.003 1.376-0.009 2.063l0.001-0.105c0.007 0.677 0.012 1.477 0.012 2.278 0 122.253-97.937 221.632-219.634 223.958l-0.218 0.003c-121.914-2.33-219.852-101.708-219.852-223.962 0-0.801 0.004-1.601 0.013-2.4l-0.001 0.122c-0.005-0.582-0.009-1.27-0.009-1.958 0-122.252 97.935-221.63 219.631-223.958l0.218-0.003zM512 891.2c86.565-2.313 155.856-73.038 155.856-159.946 0-0.806-0.006-1.612-0.018-2.415l0.001 0.122c0.008-0.587 0.012-1.28 0.012-1.974 0-86.907-69.289-157.631-155.638-159.942l-0.214-0.005c-86.563 2.316-155.852 73.039-155.852 159.946 0 0.694 0.004 1.387 0.013 2.079l-0.001-0.105c-0.010 0.682-0.016 1.487-0.016 2.294 0 86.909 69.292 157.633 155.643 159.942l0.214 0.005zM721.6 411.2h-417.92c-187.84 0-232.64-296-234.56-308.48-0.197-1.336-0.31-2.877-0.31-4.445 0-8.126 3.029-15.545 8.020-21.189l-0.030 0.034c5.837-6.795 14.406-11.101 23.983-11.2h823.697c0.108-0.001 0.235-0.002 0.362-0.002 17.673 0 32 14.327 32 32 0 1.695-0.132 3.359-0.386 4.982l0.023-0.18c-1.92 13.44-47.040 309.44-234.88 309.44zM140.16 130.88c16.64 70.4 64 217.28 163.52 217.28h417.92c99.84 0 146.88-146.88 163.84-217.28z" />
<glyph unicode="&#xe036;" glyph-name="x-close" data-tags="x-close" d="M879.36 212.48c9.411-8.787 15.277-21.267 15.277-35.117 0-26.51-21.49-48-48-48-13.85 0-26.33 5.866-35.092 15.249l-0.026 0.028-299.52 299.52-299.52-299.52c-8.787-9.411-21.267-15.277-35.117-15.277-26.51 0-48 21.49-48 48 0 13.85 5.866 26.33 15.249 35.092l0.028 0.026 299.52 299.52-299.52 299.52c-9.411 8.787-15.277 21.267-15.277 35.117 0 26.51 21.49 48 48 48 13.85 0 26.33-5.866 35.092-15.249l0.026-0.028 299.52-299.52 299.52 299.52c8.787 9.411 21.267 15.277 35.117 15.277 26.51 0 48-21.49 48-48 0-13.85-5.866-26.33-15.249-35.092l-0.028-0.026-299.52-299.52z" />
<glyph unicode="&#xe037;" glyph-name="youtube" data-tags="youtube" d="M957.44 586.88c0 18.24-1.6 40.96-4.16 68.48-2.409 27.87-6.257 53.003-11.606 77.575l0.726-3.975c-5.155 24.446-17.415 45.46-34.491 61.376l-0.069 0.064c-16.442 15.791-37.982 26.385-61.914 29.076l-0.486 0.044c-86.77 8.151-187.632 12.799-289.58 12.799-16.097 0-32.167-0.116-48.209-0.347l2.43 0.028c-13.665 0.205-29.793 0.321-45.949 0.321-102.001 0-202.917-4.649-302.546-13.746l12.815 0.945c-24.316-2.732-45.754-13.329-62.109-29.148l0.029 0.028c-17.040-16-29.197-37.019-34.11-60.691l-0.13-0.749c-5.013-20.807-9.087-45.912-11.371-71.531l-0.149-2.069c-2.56-27.52-2.56-50.24-2.56-68.48s0-42.88 0-74.88 0-56.96 0-74.88 1.92-40.96 4.16-68.48c2.409-27.87 6.257-53.003 11.606-77.575l-0.726 3.975c4.832-24.31 16.652-45.31 33.251-61.412l0.029-0.028c16.289-15.851 37.747-26.465 61.611-29.078l0.469-0.042c86.815-8.153 187.73-12.801 289.731-12.801 16.156 0 32.284 0.117 48.384 0.349l-2.435-0.028c13.613-0.203 29.683-0.319 45.78-0.319 101.948 0 202.81 4.648 302.387 13.744l-12.807-0.944c24.333 2.656 45.791 13.269 62.104 29.143l-0.024-0.023c17.029 16.060 29.258 37.038 34.417 60.66l0.143 0.78c4.721 20.563 8.679 45.677 11.026 71.257l0.174 2.343c2.56 27.52 3.84 50.24 4.16 68.48s0 42.88 0 74.88 0.32 56.96 0 74.88zM676.8 484.8l-256-160c-4.545-3.016-10.128-4.812-16.13-4.812-0.292 0-0.583 0.004-0.873 0.013l0.043-0.001c-5.732 0.101-11.113 1.508-15.887 3.936l0.207-0.096c-9.785 5.097-16.352 15.164-16.352 26.765 0 0.491 0.012 0.979 0.035 1.464l-0.003-0.068v320c0.145 17.563 14.416 31.745 31.999 31.745 6.285 0 12.147-1.812 17.092-4.942l-0.131 0.078 256-160c9.005-5.764 14.887-15.715 14.887-27.040s-5.883-21.276-14.76-26.963l-0.128-0.077z" />
<glyph unicode="&#xe038;" glyph-name="zoom-in" data-tags="zoom-in" d="M950.72 118.72l-217.28 215.68c48.181 65.128 77.12 147.031 77.12 235.693 0 0.164 0 0.328 0 0.492v-0.026c0.046 2.219 0.073 4.834 0.073 7.456 0 208.004-166.213 377.187-373.067 381.976l-0.446 0.008c-207.159-4.972-373.193-174.085-373.193-381.977 0-2.624 0.026-5.243 0.079-7.854l-0.006 0.391c-0.046-2.221-0.073-4.839-0.073-7.463 0-207.892 166.034-377.005 372.732-381.968l0.461-0.009c99.123 0.297 188.839 40.325 254.108 104.988l-0.028-0.028 213.76-212.8c5.815-5.943 13.917-9.628 22.88-9.628s17.065 3.685 22.874 9.622l0.006 0.006c5.846 5.8 9.466 13.837 9.466 22.72s-3.619 16.92-9.463 22.718l-0.002 0.002zM438.72 245.12c-172.481 3.89-310.815 144.632-310.815 317.684 0 2.727 0.034 5.446 0.103 8.157l-0.008-0.401c-0.061 2.321-0.096 5.054-0.096 7.795 0 172.489 137.436 312.879 308.776 317.635l0.44 0.010c171.779-4.766 309.216-145.156 309.216-317.645 0-2.741-0.035-5.474-0.104-8.198l0.008 0.403c0.061-2.321 0.096-5.054 0.096-7.795 0-172.489-137.436-312.879-308.776-317.635l-0.44-0.010zM585.28 605.76h-115.84v115.2c0 17.673-14.327 32-32 32s-32-14.327-32-32v0-115.2h-117.44c-17.673 0-32-14.327-32-32s14.327-32 32-32v0h115.84v-114.88c0-17.673 14.327-32 32-32s32 14.327 32 32v0 114.88h115.84c17.673 0 32 14.327 32 32s-14.327 32-32 32v0z" />
<glyph unicode="&#xe900;" glyph-name="compass" data-tags="compass" d="M661.376 199.36l-26.784-5.504-28 136.256h27.936l26.816-130.752zM495.424 378.080l26.144 127.584 26.208-127.552h-52.352zM408.64 193.824l-26.816 5.536 26.816 130.72h27.936l-27.936-136.256zM476.768 662.176h12.736l7.552-37.024-50.624-247.040h-27.936l58.24 284.064zM502.592 856.832v71.168h40.32v-71.104h-40.32zM624.704 378.112h-27.936l-50.72 247.040 7.68 37.024h12.704l58.24-284.064zM673.728 378.112l-58.304 284.064h4.768c10.24 0 18.56 8.32 18.56 18.56v111.68c0 10.24-8.32 18.56-18.56 18.56h-76.288v13.888h19.136c6.528 0 11.84 5.344 11.84 11.904v111.36c0 6.528-5.312 11.872-11.84 11.872h-80.576c-6.592 0-11.872-5.344-11.872-11.904v-111.36c0-6.528 5.28-11.84 11.84-11.84h19.040v-13.888h-76.16c-10.304 0-18.624-8.32-18.624-18.624v-111.616c0-10.272 8.32-18.592 18.624-18.592h2.432l-58.24-284.064h-89.568c-13.248 0-24-10.752-24-24 0-13.28 10.784-24 24-24h79.68l-29.376-143.072c-2.816-13.824 6.112-27.36 19.936-30.208l9.76-2.048-14.912-65.12c-2.912-12.928 5.12-25.76 18.112-28.736 1.728-0.448 3.552-0.64 5.376-0.64 10.88 0 20.8 7.552 23.36 18.688l15.136 66.208 13.856-2.88c1.728-0.32 3.52-0.544 5.184-0.544 11.936 0 22.592 8.384 25.088 20.48l34.4 167.84h72.064l34.432-167.84c2.496-12.096 13.12-20.48 25.056-20.48 1.664 0 3.424 0.192 5.12 0.576l13.28 2.688 15.136-66.048c2.56-11.136 12.448-18.688 23.36-18.688 1.792 0 3.616 0.192 5.376 0.64 12.928 2.976 20.992 15.808 18.048 28.736l-14.848 65.024 10.336 2.144c13.856 2.816 22.784 16.384 19.936 30.208l-29.344 143.040h70.912c13.28 0 24 10.752 24 24 0 13.28-10.72 24-24 24h-80.736zM455.424 777.056h128c8.832 0 16-7.168 16-16v-49.312c0-8.832-7.168-16-16-16h-128c-8.832 0-16 7.168-16 16v49.312c0 8.832 7.168 16 16 16z" />
<glyph unicode="&#xe901;" glyph-name="home" data-tags="home" d="M579.84 931.84c-38.016 36.096-97.664 36.096-135.68 0l-402.88-402.56 45.44-45.44 73.28 73.28v-397.12c0-53.024 42.976-96 96-96h512c53.024 0 96 42.976 96 96v397.12l73.28-73.28 45.44 45.44-402.88 402.56zM448 128v224h128v-224h-128zM800 160c0-17.664-14.336-32-32-32h-128v288h-256v-288h-128c-17.664 0-32 14.336-32 32v461.12l265.28 265.6c6.016 6.080 14.176 9.472 22.72 9.472s16.704-3.424 22.72-9.472l265.28-265.6v-461.12z" />
<glyph unicode="&#xe902;" glyph-name="trade" data-tags="trade" d="M645.536 827.552c-11.968 1.12-23.36-6.080-27.040-17.6l-30.784-95.616h-123.904c-2.176 13.792-7.552 30.528-19.872 46.304-20.16 25.824-52.288 40.8-95.456 44.512-11.424 1.12-22.176-5.76-26.24-16.576-7.904-21.376-28.32-35.712-50.72-35.712h-53.92c-3.456 0-6.4 2.944-6.4 6.4v127.776c0 3.52 2.944 6.432 6.4 6.432h53.92c21.312 0 40.768-12.768 49.568-32.48 4.992-11.104 17.184-17.28 29.056-14.496 27.456 6.208 74.656 22.4 101.568 62.336 48.224-0.448 214.4-10.432 319.68-122.24-36.64 19.328-80.096 36.224-125.856 40.96zM503.616 115.968h44.64v535.040h-44.64v-535.040zM882.624 703.936c-105.376 270.56-443.584 256.064-447.104 255.872-9.344-0.512-17.664-6.048-21.76-14.4-11.456-23.84-36.48-36.96-57.28-44-19.648 26.816-51.136 43.232-84.992 43.232h-53.888c-31.744 0-57.6-25.824-57.6-57.6v-127.776c0-31.744 25.856-57.6 57.6-57.6h53.92c36.608 0 70.4 19.52 89.44 50.144 19.36-3.84 33.504-11.328 42.24-22.24 13.12-16.32 10.56-36.8 10.56-36.768-1.184-7.36 0.928-14.976 5.76-20.672 4.896-5.696 12.032-8.96 19.52-8.96h2.112v-572.928c0-20.224 16.576-36.736 36.768-36.736h96.064c20.16 0 36.704 16.512 36.704 36.736v573.6c9.248 1.632 17.12 7.904 20.064 17.056l29.824 92.64c95.68-19.008 179.808-96.736 180.704-97.568 8.736-8.16 22.016-9.152 31.84-2.496 9.92 6.72 13.856 19.328 9.504 30.464z" />
</font>
</defs>
</svg>
